<?xml version="1.0" encoding="utf-8"?>
<!-- Generator: Adobe Illustrator 23.0.3, SVG Export Plug-In . SVG Version: 6.00 Build 0)  -->
<svg version="1.1" id="Ebene_1" xmlns="http://www.w3.org/2000/svg" xmlns:xlink="http://www.w3.org/1999/xlink" x="0px" y="0px"
	 width="500px" height="500px" viewBox="0 0 500 500" style="enable-background:new 0 0 500 500;" xml:space="preserve">
<path d="M482.1,144.1c-1.4,0.5-2.8,0.7-4.2,0.7c-4.9,0-9.6-3-11.4-7.9c-5.6-15.2-12.7-29.5-21-42.4c-8.3-12.9-18.2-24.9-29.3-35.6
	c-4.8-4.6-5-12.3-0.3-17.1c4.6-4.8,12.3-5,17.1-0.3c12.4,12,23.5,25.4,32.8,39.9c9.3,14.5,17.2,30.3,23.4,47.2
	C491.6,134.8,488.3,141.8,482.1,144.1z M83.8,58.9c4.8-4.6,5-12.3,0.3-17.1c-4.6-4.8-12.3-5-17.1-0.3c-12.4,12-23.5,25.4-32.8,39.9
	c-9.3,14.4-17.2,30.3-23.4,47.1c-2.3,6.3,0.9,13.3,7.2,15.6c1.4,0.5,2.8,0.8,4.2,0.8c4.9,0,9.6-3,11.4-7.9
	c5.6-15.2,12.7-29.4,21-42.4C62.9,81.5,72.7,69.6,83.8,58.9z M81.1,145.6c1.8,0.9,3.7,1.3,5.5,1.3c4.4,0,8.7-2.4,10.8-6.6
	c7.4-14.5,16.9-27.3,28.1-38.1c4.8-4.6,5-12.3,0.3-17.1c-4.6-4.8-12.3-5-17.1-0.3c-13.2,12.7-24.2,27.7-32.9,44.5
	C72.8,135.2,75.2,142.5,81.1,145.6z M402.5,140.3c2.1,4.2,6.4,6.6,10.8,6.6c1.9,0,3.7-0.4,5.5-1.3c6-3.1,8.3-10.4,5.3-16.3
	c-8.6-16.9-19.7-31.8-32.9-44.5c-4.8-4.6-12.5-4.5-17.1,0.3c-4.6,4.8-4.5,12.5,0.3,17.1C385.7,113,395.1,125.9,402.5,140.3z
	 M428.5,357.8c0,25.4-20.6,46-46,46h-69.8c-2.4,32.5-29.5,58.2-62.6,58.2s-60.2-25.7-62.6-58.2h-69.8c-25.4,0-46-20.6-46-46
	c0-24.1,18.6-43.8,42.1-45.8v-70.1c-0.1-37.5,9.8-87.3,37.8-114.4c17.8-17.2,36.1-27.3,52-33.2v-9.7c0-25.6,20.9-46.5,46.5-46.5
	c25.6,0,46.5,20.9,46.5,46.5v9.7c15.9,5.9,34.2,16,52,33.2c34.1,32.8,37.9,81,37.8,114.4v70.1C409.9,313.9,428.5,333.7,428.5,357.8z
	 M227.7,87.7c11.2-1.9,19.3-1.7,22.3-1.6c2.9-0.2,11-0.3,22.3,1.6v-3.1c0-12.3-10-22.3-22.3-22.3s-22.3,10-22.3,22.3V87.7z
	 M137.9,311.7h224.2v-69.9c0.1-29-3-70.5-30.4-96.9c-39.4-37.9-80.2-34.6-80.6-34.5c-0.8,0.1-1.5,0.1-2.3,0
	c-1.6-0.1-41.6-3-80.6,34.5c-22.6,21.7-30.5,65.8-30.4,96.9V311.7z M288.3,403.8h-76.5c2.3,19.1,18.6,33.9,38.3,33.9
	C269.7,437.7,286,422.9,288.3,403.8z M404.2,357.8c0-12-9.8-21.8-21.8-21.8H117.6c-12,0-21.8,9.8-21.8,21.8s9.8,21.8,21.8,21.8
	h264.8C394.4,379.5,404.2,369.8,404.2,357.8z"/>
</svg>
