<?xml version="1.0" encoding="utf-8"?>
<!-- Generator: Adobe Illustrator 23.0.3, SVG Export Plug-In . SVG Version: 6.00 Build 0)  -->
<svg version="1.1" id="Ebene_1" xmlns="http://www.w3.org/2000/svg" xmlns:xlink="http://www.w3.org/1999/xlink" x="0px" y="0px"
	 width="500px" height="500px" viewBox="0 0 500 500" style="enable-background:new 0 0 500 500;" xml:space="preserve">
<path d="M302,381.6l24,24.3H162.3l-52,52.5c-2.3,2.3-5.4,3.6-8.6,3.6c-1.6,0-3.1-0.3-4.6-0.9c-4.5-1.9-7.5-6.3-7.5-11.2v-44H22.1
	c-6.7,0-12.1-5.4-12.1-12.1v-219c0-6.7,5.4-12.1,12.1-12.1h45.5v24.3H34.3v194.7h67.4c6.7,0,12.1,5.4,12.1,12.1v26.6l34.9-35.2
	c2.3-2.3,5.4-3.6,8.6-3.6H302z M490,50.1V324c0,6.7-5.4,12.1-12.1,12.1h-87.4v58c0,4.9-3,9.3-7.5,11.2c-1.5,0.6-3.1,0.9-4.6,0.9
	c-3.2,0-6.3-1.2-8.6-3.6l-22.6-22.8l-24.3-24.5l-19.1-19.3H113.1c-6.7,0-12.1-5.4-12.1-12.1V186.9v-24.3V50.1
	c0-6.7,5.4-12.1,12.1-12.1h364.8C484.6,38,490,43.5,490,50.1z M465.7,62.3H125.2v100.4v24.3v125h183.7c3.2,0,6.3,1.3,8.6,3.6
	l5.4,5.5l24.3,24.5l19.1,19.3V324c0-6.7,5.4-12.1,12.1-12.1h87.4V62.3z M224.1,210.7c12.6,0,22.8-10.2,22.8-22.8c0-0.3,0-0.7-0.1-1
	c-0.5-12.1-10.5-21.7-22.7-21.7c-12.2,0-22.2,9.6-22.7,21.7c0,0.3-0.1,0.7-0.1,1C201.4,200.5,211.5,210.7,224.1,210.7z M295.5,210.7
	c12.6,0,22.8-10.2,22.8-22.8c0-0.3,0-0.7-0.1-1c-0.5-12.1-10.5-21.7-22.7-21.7c-12.2,0-22.2,9.6-22.7,21.7c0,0.3-0.1,0.7-0.1,1
	C272.7,200.5,282.9,210.7,295.5,210.7z M366.8,210.7c12.6,0,22.8-10.2,22.8-22.8c0-12.6-10.2-22.8-22.8-22.8
	c-8.4,0-15.7,4.6-19.7,11.3c-2,3.4-3.1,7.3-3.1,11.4c0,4.2,1.1,8.1,3.1,11.4C351.1,206.1,358.4,210.7,366.8,210.7z"/>
</svg>
