<?xml version="1.0" encoding="utf-8"?>
<!-- Generator: Adobe Illustrator 23.0.3, SVG Export Plug-In . SVG Version: 6.00 Build 0)  -->
<svg version="1.1" id="Ebene_1" xmlns="http://www.w3.org/2000/svg" xmlns:xlink="http://www.w3.org/1999/xlink" x="0px" y="0px"
	 width="500px" height="500px" viewBox="0 0 500 500" style="enable-background:new 0 0 500 500;" xml:space="preserve">
<path d="M297.1,202.9h145.8c26,0,47.1,21.1,47.1,47.1v0c0,26-21.1,47.1-47.1,47.1H297.1v145.8c0,26-21.1,47.1-47.1,47.1h0
	c-26,0-47.1-21.1-47.1-47.1V297.1H57.1C31.1,297.1,10,276,10,250v0c0-26,21.1-47.1,47.1-47.1h145.8V57.1c0-26,21.1-47.1,47.1-47.1h0
	c26,0,47.1,21.1,47.1,47.1V202.9z"/>
</svg>
