<?xml version="1.0" encoding="utf-8"?>
<!-- Generator: Adobe Illustrator 23.0.3, SVG Export Plug-In . SVG Version: 6.00 Build 0)  -->
<svg version="1.1" id="Ebene_1" xmlns="http://www.w3.org/2000/svg" xmlns:xlink="http://www.w3.org/1999/xlink" x="0px" y="0px"
	 width="500px" height="500px" viewBox="0 0 500 500" style="enable-background:new 0 0 500 500;" xml:space="preserve">
<path d="M482.5,147.3L241,388.8l-37.4,37.4l0,0c-10,10-26.1,10-36.1,0L130,388.8c0,0,0,0,0,0L17.5,276.2c-10-10-10-26.1,0-36.1
	l37.4-37.4c10-10,26.1-10,36.1,0l94.5,94.5L409,73.8c10-10,26.1-10,36.1,0l37.4,37.4C492.5,121.2,492.5,137.3,482.5,147.3z"/>
</svg>
