<?xml version="1.0" encoding="utf-8"?>
<!-- Generator: Adobe Illustrator 23.0.3, SVG Export Plug-In . SVG Version: 6.00 Build 0)  -->
<svg version="1.1" id="Ebene_1" xmlns="http://www.w3.org/2000/svg" xmlns:xlink="http://www.w3.org/1999/xlink" x="0px" y="0px"
	 width="500px" height="500px" viewBox="0 0 500 500" style="enable-background:new 0 0 500 500;" xml:space="preserve">
<path d="M415.1,338c21.3,21.3,21.3,55.8,0,77c-21.3,21.3-55.8,21.3-77,0l-88-88l-88,88c-21.3,21.3-55.8,21.3-77.1,0
	c-21.3-21.3-21.3-55.8,0-77l88-88l-88-88c-21.3-21.3-21.3-55.8,0-77c21.3-21.3,55.8-21.3,77.1,0l88,88l88-88
	c21.3-21.3,55.8-21.3,77,0c21.3,21.3,21.3,55.8,0,77l-88,88L415.1,338z"/>
</svg>
