<?xml version="1.0" encoding="utf-8"?>
<!-- Generator: Adobe Illustrator 23.0.3, SVG Export Plug-In . SVG Version: 6.00 Build 0)  -->
<svg version="1.1" id="Ebene_1" xmlns="http://www.w3.org/2000/svg" xmlns:xlink="http://www.w3.org/1999/xlink" x="0px" y="0px"
	 width="500px" height="500px" viewBox="0 0 500 500" style="enable-background:new 0 0 500 500;" xml:space="preserve">
<path d="M147.3,58.7H66.7c-6.7,0-12.1,5.4-12.1,12.1v78.5c0,6.7,5.4,12.1,12.1,12.1h80.5c6.7,0,12.1-5.4,12.1-12.1V70.8
	C159.4,64.1,154,58.7,147.3,58.7z M135.2,137.2H78.9V83h56.3V137.2z M290.3,58.7h-80.5c-6.7,0-12.1,5.4-12.1,12.1v78.5
	c0,6.7,5.4,12.1,12.1,12.1h80.5c6.7,0,12.1-5.4,12.1-12.1V70.8C302.4,64.1,297,58.7,290.3,58.7z M278.1,137.2h-56.3V83h56.3V137.2z
	 M433.3,58.7h-80.5c-6.7,0-12.1,5.4-12.1,12.1v78.5c0,6.7,5.4,12.1,12.1,12.1h80.5c6.7,0,12.1-5.4,12.1-12.1V70.8
	C445.4,64.1,440,58.7,433.3,58.7z M421.1,137.2h-56.3V83h56.3V137.2z M147.3,200H66.7c-6.7,0-12.1,5.4-12.1,12.1v78.5
	c0,6.7,5.4,12.1,12.1,12.1h80.5c6.7,0,12.1-5.4,12.1-12.1v-78.5C159.4,205.4,154,200,147.3,200z M135.2,278.5H78.9v-54.3h56.3V278.5
	z M290.3,200h-80.5c-6.7,0-12.1,5.4-12.1,12.1v78.5c0,6.7,5.4,12.1,12.1,12.1h80.5c6.7,0,12.1-5.4,12.1-12.1v-78.5
	C302.4,205.4,297,200,290.3,200z M278.1,278.5h-56.3v-54.3h56.3V278.5z M433.3,200h-80.5c-6.7,0-12.1,5.4-12.1,12.1v78.5
	c0,6.7,5.4,12.1,12.1,12.1h80.5c6.7,0,12.1-5.4,12.1-12.1v-78.5C445.4,205.4,440,200,433.3,200z M421.1,278.5h-56.3v-54.3h56.3
	V278.5z M147.3,338.5H66.7c-6.7,0-12.1,5.4-12.1,12.1v78.5c0,6.7,5.4,12.1,12.1,12.1h80.5c6.7,0,12.1-5.4,12.1-12.1v-78.5
	C159.4,344,154,338.5,147.3,338.5z M135.2,417H78.9v-54.3h56.3V417z M290.3,338.5h-80.5c-6.7,0-12.1,5.4-12.1,12.1v78.5
	c0,6.7,5.4,12.1,12.1,12.1h80.5c6.7,0,12.1-5.4,12.1-12.1v-78.5C302.4,344,297,338.5,290.3,338.5z M278.1,417h-56.3v-54.3h56.3V417z
	 M433.3,338.5h-80.5c-6.7,0-12.1,5.4-12.1,12.1v78.5c0,6.7,5.4,12.1,12.1,12.1h80.5c6.7,0,12.1-5.4,12.1-12.1v-78.5
	C445.4,344,440,338.5,433.3,338.5z M421.1,417h-56.3v-54.3h56.3V417z"/>
</svg>
