<?xml version="1.0" encoding="utf-8"?>
<!-- Generator: Adobe Illustrator 23.0.3, SVG Export Plug-In . SVG Version: 6.00 Build 0)  -->
<svg version="1.1" id="Ebene_1" xmlns="http://www.w3.org/2000/svg" xmlns:xlink="http://www.w3.org/1999/xlink" x="0px" y="0px"
	 width="500px" height="500px" viewBox="0 0 500 500" style="enable-background:new 0 0 500 500;" xml:space="preserve">
<path d="M250,10c63.9,0,115.8,51.8,115.8,115.7S313.9,241.3,250,241.3s-115.8-51.8-115.8-115.7S186.1,10,250,10z M414.6,482.7
	c-9.4,4.8-19.8,7.2-30.4,7.3H115.8c-37.3,0-67.6-30.3-67.6-67.7c0-10.6,2.5-21,7.2-30.4c54.4-107.4,185.7-150.4,293.1-96
	c41.4,21,75,54.6,96,96C461.4,425.2,448,465.9,414.6,482.7z"/>
</svg>
