<?xml version="1.0" encoding="utf-8"?>
<!-- Generator: Adobe Illustrator 23.0.3, SVG Export Plug-In . SVG Version: 6.00 Build 0)  -->
<svg version="1.1" id="Ebene_1" xmlns="http://www.w3.org/2000/svg" xmlns:xlink="http://www.w3.org/1999/xlink" x="0px" y="0px"
	 width="500px" height="500px" viewBox="0 0 500 500" style="enable-background:new 0 0 500 500;" xml:space="preserve">
<path d="M250,10C117.4,10,10,117.4,10,250c0,132.5,107.4,240,240,240c132.5,0,240-107.5,240-240C490,117.4,382.5,10,250,10z
	 M250,138.4c29.7,0,53.8,24.1,53.8,53.8c0,29.7-24.1,53.8-53.8,53.8s-53.8-24.1-53.8-53.8C196.2,162.5,220.3,138.4,250,138.4z
	 M326.5,358.2c-4.4,2.2-9.2,3.4-14.1,3.4H187.6c-17.4,0-31.4-14.1-31.4-31.5c0-4.9,1.2-9.8,3.4-14.1c25.3-49.9,86.3-69.9,136.2-44.6
	c19.2,9.7,34.9,25.4,44.6,44.6C348.2,331.5,342,350.4,326.5,358.2z"/>
</svg>
