<?xml version="1.0" encoding="utf-8"?>
<!-- Generator: Adobe Illustrator 23.0.3, SVG Export Plug-In . SVG Version: 6.00 Build 0)  -->
<svg version="1.1" id="Ebene_1" xmlns="http://www.w3.org/2000/svg" xmlns:xlink="http://www.w3.org/1999/xlink" x="0px" y="0px"
	 width="500px" height="500px" viewBox="0 0 500 500" style="enable-background:new 0 0 500 500;" xml:space="preserve">
<path d="M250,10C117.5,10,10,117.5,10,250s107.5,240,240,240s240-107.5,240-240S382.5,10,250,10z M312.3,332.2l-29.9-29.9
	c-9.6,6-20.8,9.3-32.4,9.3c-16.4,0-31.9-6.4-43.5-18c-11.6-11.6-18-27.1-18-43.5c0-16.4,6.4-31.9,18-43.5c11.6-11.6,27.1-18,43.5-18
	c16.4,0,31.9,6.4,43.5,18c11.6,11.6,18,27.1,18,43.5c0,11.6-3.3,22.8-9.3,32.4l29.9,29.9L312.3,332.2z M273.6,226.4
	c6.3,6.3,9.8,14.7,9.8,23.7c0,8.9-3.5,17.3-9.8,23.6c-6.3,6.3-14.7,9.8-23.6,9.8c-8.9,0-17.3-3.5-23.6-9.8
	c-6.3-6.3-9.8-14.7-9.8-23.6c0-8.9,3.5-17.3,9.8-23.6c6.3-6.3,14.7-9.8,23.6-9.8C258.9,216.6,267.3,220.1,273.6,226.4z"/>
</svg>
