<?xml version="1.0" encoding="utf-8"?>
<!-- Generator: Adobe Illustrator 23.0.3, SVG Export Plug-In . SVG Version: 6.00 Build 0)  -->
<svg version="1.1" id="Ebene_1" xmlns="http://www.w3.org/2000/svg" xmlns:xlink="http://www.w3.org/1999/xlink" x="0px" y="0px"
	 width="500px" height="500px" viewBox="0 0 500 500" style="enable-background:new 0 0 500 500;" xml:space="preserve">
<path d="M250,10C117.7,10,10,117.7,10,250s107.7,240,240,240s240-107.7,240-240S382.3,10,250,10z M250,473.6
	C126.7,473.6,26.4,373.3,26.4,250S126.7,26.4,250,26.4S473.6,126.7,473.6,250S373.3,473.6,250,473.6z M271.7,253.6
	c0,14-11.4,25.4-25.4,25.4c-14,0-25.4-11.4-25.4-25.4c0-14,11.4-25.4,25.4-25.4C260.4,228.2,271.7,239.6,271.7,253.6z M351.7,253.6
	c0,14-11.4,25.4-25.4,25.4c-14,0-25.4-11.4-25.4-25.4c0-14,11.4-25.4,25.4-25.4C340.3,228.2,351.7,239.6,351.7,253.6z M191.7,253.6
	c0,14-11.4,25.4-25.4,25.4c-14,0-25.4-11.4-25.4-25.4c0-14,11.4-25.4,25.4-25.4C180.4,228.2,191.7,239.6,191.7,253.6z"/>
</svg>
