<?xml version="1.0" encoding="utf-8"?>
<!-- Generator: Adobe Illustrator 23.0.3, SVG Export Plug-In . SVG Version: 6.00 Build 0)  -->
<svg version="1.1" id="Ebene_1" xmlns="http://www.w3.org/2000/svg" xmlns:xlink="http://www.w3.org/1999/xlink" x="0px" y="0px"
	 width="500px" height="500px" viewBox="0 0 500 500" style="enable-background:new 0 0 500 500;" xml:space="preserve">
<path d="M123.9,15.2H25c-8.2,0-14.9,6.7-14.9,14.9v96.4c0,8.2,6.7,14.9,14.9,14.9h98.9c8.2,0,14.9-6.7,14.9-14.9V30.1
	C138.8,21.8,132.1,15.2,123.9,15.2z M109,111.5H39.9V44.9H109V111.5z M299.4,15.2h-98.9c-8.2,0-14.9,6.7-14.9,14.9v96.4
	c0,8.2,6.7,14.9,14.9,14.9h98.9c8.2,0,14.9-6.7,14.9-14.9V30.1C314.3,21.8,307.7,15.2,299.4,15.2z M284.6,111.5h-69.1V44.9h69.1
	V111.5z M475,15.2h-98.9c-8.2,0-14.9,6.7-14.9,14.9v96.4c0,8.2,6.7,14.9,14.9,14.9H475c8.2,0,14.9-6.7,14.9-14.9V30.1
	C489.8,21.8,483.2,15.2,475,15.2z M460.1,111.5H391V44.9h69.1V111.5z M123.9,188.6H25c-8.2,0-14.9,6.7-14.9,14.9v96.4
	c0,8.2,6.7,14.9,14.9,14.9h98.9c8.2,0,14.9-6.7,14.9-14.9v-96.4C138.8,195.3,132.1,188.6,123.9,188.6z M109,285H39.9v-66.6H109V285z
	 M299.4,188.6h-98.9c-8.2,0-14.9,6.7-14.9,14.9v96.4c0,8.2,6.7,14.9,14.9,14.9h98.9c8.2,0,14.9-6.7,14.9-14.9v-96.4
	C314.3,195.3,307.7,188.6,299.4,188.6z M284.6,285h-69.1v-66.6h69.1V285z M475,188.6h-98.9c-8.2,0-14.9,6.7-14.9,14.9v96.4
	c0,8.2,6.7,14.9,14.9,14.9H475c8.2,0,14.9-6.7,14.9-14.9v-96.4C489.8,195.3,483.2,188.6,475,188.6z M460.1,285H391v-66.6h69.1V285z
	 M123.9,358.7H25c-8.2,0-14.9,6.7-14.9,14.9v96.4c0,8.2,6.7,14.9,14.9,14.9h98.9c8.2,0,14.9-6.7,14.9-14.9v-96.4
	C138.8,365.4,132.1,358.7,123.9,358.7z M109,455.1H39.9v-66.6H109V455.1z M299.4,358.7h-98.9c-8.2,0-14.9,6.7-14.9,14.9v96.4
	c0,8.2,6.7,14.9,14.9,14.9h98.9c8.2,0,14.9-6.7,14.9-14.9v-96.4C314.3,365.4,307.7,358.7,299.4,358.7z M284.6,455.1h-69.1v-66.6
	h69.1V455.1z M475,358.7h-98.9c-8.2,0-14.9,6.7-14.9,14.9v96.4c0,8.2,6.7,14.9,14.9,14.9H475c8.2,0,14.9-6.7,14.9-14.9v-96.4
	C489.8,365.4,483.2,358.7,475,358.7z M460.1,455.1H391v-66.6h69.1V455.1z"/>
</svg>
