<?xml version="1.0" encoding="utf-8"?>
<!-- Generator: Adobe Illustrator 23.0.3, SVG Export Plug-In . SVG Version: 6.00 Build 0)  -->
<svg version="1.1" id="Ebene_1" xmlns="http://www.w3.org/2000/svg" xmlns:xlink="http://www.w3.org/1999/xlink" x="0px" y="0px"
	 width="500px" height="500px" viewBox="0 0 500 500" style="enable-background:new 0 0 500 500;" xml:space="preserve">
<path d="M477.9,58.7H22.1c-6.7,0-12.1,5.4-12.1,12.1v75.4v283c0,6.7,5.4,12.1,12.1,12.1h455.7c6.7,0,12.1-5.4,12.1-12.1v-283V70.8
	C490,64.1,484.6,58.7,477.9,58.7z M237.9,417H34.3V158.3h203.6V417z M465.7,417H262.1V158.3h203.6V417z M465.7,134.1H34.3V83h431.5
	V134.1z M97.9,296.3c-4.7-4.7-4.7-12.4,0-17.1l47.6-47.6c4.7-4.7,12.4-4.7,17.1,0c4.7,4.7,4.7,12.4,0,17.1l-39,39l39,39
	c4.7,4.7,4.7,12.4,0,17.1c-2.4,2.4-5.5,3.6-8.6,3.6c-3.1,0-6.2-1.2-8.6-3.6L97.9,296.3z M337.3,326.7l39-39l-39-39
	c-4.7-4.7-4.7-12.4,0-17.1c4.7-4.7,12.4-4.7,17.1,0l47.6,47.6c4.7,4.7,4.7,12.4,0,17.1l-47.6,47.6c-2.4,2.4-5.5,3.6-8.6,3.6
	c-3.1,0-6.2-1.2-8.6-3.6C332.6,339.2,332.6,331.5,337.3,326.7z"/>
</svg>
