<?xml version="1.0" encoding="utf-8"?>
<!-- Generator: Adobe Illustrator 23.0.3, SVG Export Plug-In . SVG Version: 6.00 Build 0)  -->
<svg version="1.1" id="Ebene_1" xmlns="http://www.w3.org/2000/svg" xmlns:xlink="http://www.w3.org/1999/xlink" x="0px" y="0px"
	 width="500px" height="500px" viewBox="0 0 500 500" style="enable-background:new 0 0 500 500;" xml:space="preserve">
<path d="M184.6,209.9c28.6,0,51.8-23.3,51.8-51.8s-23.3-51.8-51.8-51.8s-51.9,23.3-51.9,51.8S156,209.9,184.6,209.9z M184.6,130.5
	c15.2,0,27.6,12.4,27.6,27.6s-12.4,27.6-27.6,27.6S157,173.3,157,158.1S169.3,130.5,184.6,130.5z M488,400.1
	c0.2-0.3,0.3-0.6,0.5-0.9c0.2-0.4,0.4-0.8,0.6-1.2c0.2-0.4,0.3-0.8,0.4-1.2c0.1-0.3,0.2-0.7,0.3-1c0.3-1.6,0.3-3.2,0-4.7
	c-0.1-0.4-0.2-0.7-0.3-1c-0.1-0.4-0.2-0.8-0.4-1.2c-0.2-0.4-0.4-0.8-0.6-1.2c-0.2-0.3-0.3-0.6-0.5-0.9c-0.4-0.7-0.9-1.3-1.5-1.9
	c0,0,0,0,0,0l-56.5-56.5c-4.7-4.7-12.4-4.7-17.1,0c-4.7,4.7-4.7,12.4,0,17.1l35.8,35.8h-257h-75.2H34.3v-52l87.5-64.5l62.5,62.5
	c2.3,2.3,5.4,3.6,8.6,3.6c3.2,0,6.3-1.3,8.6-3.6l130.1-130.1l81.3,81.3c0,0,0,0,0,0c0.6,0.6,1.2,1.1,1.8,1.5c0.3,0.2,0.6,0.3,1,0.5
	c0.4,0.2,0.7,0.4,1.1,0.6c0.4,0.2,0.8,0.3,1.2,0.4c0.3,0.1,0.7,0.2,1,0.3c0.7,0.1,1.5,0.2,2.2,0.2c0,0,0.1,0,0.1,0c0,0,0.1,0,0.1,0
	c0.7,0,1.5-0.1,2.2-0.2c0.4-0.1,0.7-0.2,1-0.3c0.4-0.1,0.8-0.2,1.2-0.4c0.4-0.2,0.8-0.4,1.1-0.6c0.3-0.2,0.7-0.3,1-0.5
	c0.7-0.4,1.3-0.9,1.8-1.5c0,0,0,0,0,0c0,0,0,0,0,0c0.6-0.6,1.1-1.2,1.5-1.9c0.2-0.3,0.3-0.6,0.5-0.9c0.2-0.4,0.4-0.8,0.6-1.2
	c0.2-0.4,0.3-0.8,0.4-1.2c0.1-0.3,0.2-0.7,0.3-1c0.2-0.8,0.2-1.6,0.2-2.4V50.1c0-6.7-5.4-12.1-12.1-12.1H22.1
	C15.4,38,10,43.4,10,50.1v343.2c0,6.7,5.4,12.1,12.1,12.1h94.3h75.2h257l-35.8,35.8c-4.7,4.7-4.7,12.4,0,17.1
	c2.4,2.4,5.5,3.6,8.6,3.6c3.1,0,6.2-1.2,8.6-3.6l56.5-56.5c0,0,0,0,0,0C487,401.3,487.5,400.7,488,400.1z M409.2,62.3v178.2
	l-69.1-69.1c-4.7-4.7-12.4-4.7-17.1,0L192.9,301.4l-61.3-61.3c-4.2-4.2-10.9-4.7-15.8-1.2L34.3,299V62.3H409.2z"/>
</svg>
