<?xml version="1.0" encoding="utf-8"?>
<!-- Generator: Adobe Illustrator 23.0.3, SVG Export Plug-In . SVG Version: 6.00 Build 0)  -->
<svg version="1.1" id="Ebene_1" xmlns="http://www.w3.org/2000/svg" xmlns:xlink="http://www.w3.org/1999/xlink" x="0px" y="0px"
	 width="500px" height="500px" viewBox="0 0 500 500" style="enable-background:new 0 0 500 500;" xml:space="preserve">
<path d="M283.2,216.9h102.6c18.3,0,33.1,14.8,33.1,33.1v0c0,18.3-14.8,33.1-33.1,33.1H283.2v102.7c0,18.3-14.8,33.1-33.1,33.1h0
	c-18.3,0-33.1-14.8-33.1-33.1V283.1H114.2c-18.3,0-33.1-14.8-33.1-33.1v0c0-18.3,14.8-33.1,33.1-33.1h102.6V114.2
	c0-18.3,14.8-33.1,33.1-33.1h0c18.3,0,33.1,14.8,33.1,33.1V216.9z"/>
</svg>
