<?xml version="1.0" encoding="utf-8"?>
<!-- Generator: Adobe Illustrator 23.0.3, SVG Export Plug-In . SVG Version: 6.00 Build 0)  -->
<svg version="1.1" id="Ebene_1" xmlns="http://www.w3.org/2000/svg" xmlns:xlink="http://www.w3.org/1999/xlink" x="0px" y="0px"
	 width="500px" height="500px" viewBox="0 0 500 500" style="enable-background:new 0 0 500 500;" xml:space="preserve">
<path d="M490,423.7l-100-100c20.1-32.2,31-69.3,31-108.2c0-54.9-21.4-106.5-60.2-145.3C322,31.4,270.4,10,215.5,10
	S109,31.4,70.2,70.2C31.4,109,10,160.6,10,215.5c0,54.9,21.4,106.5,60.2,145.3C109,399.6,160.6,421,215.5,421
	c38.9,0,76-10.9,108.2-31l100,100L490,423.7z M215.5,327.2c-29.8,0-57.9-11.6-79-32.7c-21.1-21.1-32.7-49.1-32.7-79
	s11.6-57.9,32.7-79c21.1-21.1,49.2-32.7,79-32.7s57.9,11.6,79,32.7c21.1,21.1,32.7,49.2,32.7,79s-11.6,57.9-32.7,79
	C273.4,315.6,245.4,327.2,215.5,327.2z"/>
</svg>
