<?xml version="1.0" encoding="utf-8"?>
<!-- Generator: Adobe Illustrator 23.0.3, SVG Export Plug-In . SVG Version: 6.00 Build 0)  -->
<svg version="1.1" id="Ebene_1" xmlns="http://www.w3.org/2000/svg" xmlns:xlink="http://www.w3.org/1999/xlink" x="0px" y="0px"
	 width="500px" height="500px" viewBox="0 0 500 500" style="enable-background:new 0 0 500 500;" xml:space="preserve">
<path d="M485.5,411.2L278.8,55.3c-12.8-22.1-44.7-22.1-57.5,0L14.5,411.2c-12.9,22.2,3.1,50,28.8,50h413.4
	C482.3,461.2,498.3,433.4,485.5,411.2z M251.6,405.6c-0.5,0-1,0-1.5,0v0c-16.2,0.5-29.8-12.3-30.2-28.5c0-0.5,0-1,0-1.5
	c-0.4-16.1,12.4-29.5,28.5-29.8c0.6,0,1.2,0,1.8,0c16-0.6,29.4,11.9,30,27.9c0,0.6,0,1.2,0,1.8C280.6,391.6,267.8,405.1,251.6,405.6
	z M280.9,179.5L280.9,179.5c-1.6,15.5-3.4,31-5.2,46.6c-3,26.4-6.1,52.8-9.2,79.2c-0.2,1.8-0.4,3.7-0.8,5.5
	c-1.2,7.9-8.2,13.6-16.2,13.1c-7.9,0.1-14.5-5.9-15.3-13.8c-2.4-18.9-4.4-37.9-6.6-56.7c-2.1-18.1-4.2-36.2-6.2-54.3
	c-0.8-6.6-1.6-13.2-2.2-19.8c-1.6-8,3.5-15.7,11.5-17.3c1.5-0.3,3.1-0.4,4.7-0.2h14.4c5,0,10.1,0,15.1,0c8.1-0.8,15.4,5.2,16.1,13.3
	C281.3,176.6,281.2,178.1,280.9,179.5z"/>
</svg>
