<?xml version="1.0" encoding="utf-8"?>
<!-- Generator: Adobe Illustrator 23.0.3, SVG Export Plug-In . SVG Version: 6.00 Build 0)  -->
<svg version="1.1" id="Ebene_1" xmlns="http://www.w3.org/2000/svg" xmlns:xlink="http://www.w3.org/1999/xlink" x="0px" y="0px"
	 width="500px" height="500px" viewBox="0 0 500 500" style="enable-background:new 0 0 500 500;" xml:space="preserve">
<path d="M468.8,366.7c28.2,28.2,28.2,73.9,0,102.2c-28.2,28.2-73.9,28.2-102.2,0L250,352.2L133.3,468.8
	c-28.2,28.2-73.9,28.2-102.2,0c-28.2-28.2-28.2-73.9,0-102.2L147.8,250L31.2,133.3c-28.2-28.2-28.2-73.9,0-102.2
	c28.2-28.2,73.9-28.2,102.2,0L250,147.8L366.7,31.2c28.2-28.2,73.9-28.2,102.2,0c28.2,28.2,28.2,73.9,0,102.2L352.2,250L468.8,366.7
	z"/>
</svg>
