<?xml version="1.0" encoding="utf-8"?>
<!-- Generator: Adobe Illustrator 23.0.3, SVG Export Plug-In . SVG Version: 6.00 Build 0)  -->
<svg version="1.1" id="Ebene_1" xmlns="http://www.w3.org/2000/svg" xmlns:xlink="http://www.w3.org/1999/xlink" x="0px" y="0px"
	 width="500px" height="500px" viewBox="0 0 500 500" style="enable-background:new 0 0 500 500;" xml:space="preserve">
<path d="M307.9,250c0,32-25.9,57.9-57.9,57.9c-32,0-57.9-25.9-57.9-57.9c0-32,25.9-57.9,57.9-57.9C281.9,192.1,307.9,218,307.9,250z
	 M490,250c0,32-25.9,57.9-57.9,57.9c-32,0-57.9-25.9-57.9-57.9c0-32,25.9-57.9,57.9-57.9C464.1,192.1,490,218,490,250z M125.7,250
	c0,32-25.9,57.9-57.9,57.9C35.9,307.9,10,282,10,250c0-32,25.9-57.9,57.9-57.9C99.8,192.1,125.7,218,125.7,250z"/>
</svg>
