<?xml version="1.0" encoding="utf-8"?>
<!-- Generator: Adobe Illustrator 23.0.3, SVG Export Plug-In . SVG Version: 6.00 Build 0)  -->
<svg version="1.1" id="Ebene_1" xmlns="http://www.w3.org/2000/svg" xmlns:xlink="http://www.w3.org/1999/xlink" x="0px" y="0px"
	 width="500px" height="500px" viewBox="0 0 500 500" style="enable-background:new 0 0 500 500;" xml:space="preserve">
<path d="M266.4,382.8l-64.5,104c-3.6,5.8-12.5,3.2-12.5-3.6v-122c0-7.1,2.5-13.9,7.1-19.3l215.4-234.4L141.2,330.1
	c-1.6,1.4-3.8,1.8-5.7,1.1L24.1,292.3c-13-4.5-14.6-22.3-2.6-29.1L469.3,11.5c8.4-4.7,18.6,2.3,17.2,11.9l-57.7,382.9
	c-2.1,13.9-16.3,22.4-29.5,17.7l-124.6-44.1C271.6,378.8,268.2,380,266.4,382.8z"/>
</svg>
