<?xml version="1.0" encoding="utf-8"?>
<!-- Generator: Adobe Illustrator 23.0.3, SVG Export Plug-In . SVG Version: 6.00 Build 0)  -->
<svg version="1.1" id="Ebene_1" xmlns="http://www.w3.org/2000/svg" xmlns:xlink="http://www.w3.org/1999/xlink" x="0px" y="0px"
	 width="500px" height="500px" viewBox="0 0 500 500" style="enable-background:new 0 0 500 500;" xml:space="preserve">
<path d="M250,10C117.4,10,10,117.5,10,250c0,132.6,107.4,240,240,240s240-107.4,240-240C490,117.5,382.5,10,250,10z M250,466
	c-119.1,0-216-96.9-216-216c0-119.1,96.9-216,216-216c119.1,0,216,96.9,216,216C466,369.1,369.1,466,250,466z M232.2,152.1
	l93.2,93.3l-93.2,93.3l-25.5-25.5l67.8-67.8l-67.8-67.8L232.2,152.1z"/>
</svg>
