<?xml version="1.0" encoding="utf-8"?>
<!-- Generator: Adobe Illustrator 23.0.3, SVG Export Plug-In . SVG Version: 6.00 Build 0)  -->
<svg version="1.1" id="Ebene_1" xmlns="http://www.w3.org/2000/svg" xmlns:xlink="http://www.w3.org/1999/xlink" x="0px" y="0px"
	 width="500px" height="500px" viewBox="0 0 500 500" style="enable-background:new 0 0 500 500;" xml:space="preserve">
<path d="M489.2,275.5l-47-80.7l1.2-8.9c0-0.1,0-0.1,0-0.2c0-0.1,0-0.2,0-0.3c0-0.1,0-0.2,0-0.3c0-0.1,0-0.2,0-0.3c0-0.1,0-0.2,0-0.3
	c0-0.1,0-0.2-0.1-0.3c0-0.1,0-0.2-0.1-0.3c0-0.1-0.1-0.2-0.1-0.3c0-0.1-0.1-0.2-0.1-0.3c0-0.1-0.1-0.2-0.1-0.3
	c0-0.1-0.1-0.2-0.2-0.3c0-0.1-0.1-0.1-0.1-0.2l-20.4-34.8c-1.2-2-3.5-3.1-5.8-2.6l-2.9,0.6l-9.8-16.9c-1.2-2-3.5-3.1-5.8-2.7
	l-71.9,13.4l-6.8-12.5c-1.1-2.1-3.5-3.2-5.9-2.8l-65.1,12c-2,0.4-3.7,1.7-4.5,3.5c-0.2,0.5-0.4,1.1-0.5,1.6c0,0.1,0,0.2,0,0.3
	c0,0.1,0,0.2,0,0.2c0,0,0,0,0,0c0,0.2,0,0.4,0,0.5l-0.3,16.8l-24.7,4.6l-3-5.7c-1.1-2.2-3.5-3.3-5.9-2.9l-28.6,5.4c0,0,0,0-0.1,0
	c0,0,0,0-0.1,0c-0.2,0-0.3,0.1-0.4,0.1c-0.1,0-0.3,0.1-0.4,0.1c-0.2,0.1-0.3,0.1-0.5,0.2c-0.1,0.1-0.3,0.1-0.4,0.2
	c-0.2,0.1-0.3,0.2-0.4,0.3c-0.1,0.1-0.2,0.2-0.3,0.2c-0.1,0.1-0.3,0.3-0.4,0.4c-0.1,0.1-0.2,0.2-0.3,0.3c-0.1,0.1-0.2,0.3-0.3,0.5
	c-0.1,0.1-0.1,0.2-0.2,0.3c-0.1,0.2-0.2,0.4-0.2,0.5c0,0.1-0.1,0.2-0.1,0.3c-0.1,0.2-0.1,0.4-0.2,0.6c0,0.1-0.1,0.2-0.1,0.3
	c-0.1,0.3-0.1,0.6-0.1,1v5.6l-21.1,3.9l-7.6-15.9c-1.6-3.3-5.1-5.1-8.7-4.4L23.8,176.8c-0.1,0-0.2,0-0.3,0c-1.4,0.3-2.6,1.1-3.4,2.2
	c0,0-0.1,0.1-0.1,0.1c-0.1,0.1-0.2,0.3-0.3,0.4c-0.1,0.1-0.1,0.2-0.1,0.3c0,0.1-0.1,0.2-0.1,0.3c-0.1,0.1-0.1,0.3-0.1,0.4
	c0,0.2-0.1,0.3-0.1,0.5c0,0.1,0,0.2-0.1,0.3c0,0.3-0.1,0.5-0.1,0.8c0,0,0,0.1,0,0.1v14.6l-4.4,0.8c-2.7,0.5-4.6,2.9-4.5,5.7l0.4,9.1
	c0,0.6,0.2,1.2,0.4,1.8L73,372.5c0,0,0,0,0,0c0,0.1,0.1,0.1,0.1,0.2c0.1,0.2,0.2,0.4,0.3,0.6c0.1,0.1,0.1,0.2,0.2,0.3
	c0.1,0.2,0.2,0.3,0.3,0.5c0.1,0.1,0.1,0.2,0.2,0.2c0.1,0.1,0.3,0.3,0.4,0.4c0.1,0.1,0.2,0.1,0.3,0.2c0.1,0.1,0.3,0.2,0.4,0.3
	c0.1,0.1,0.2,0.1,0.3,0.2c0.2,0.1,0.3,0.2,0.5,0.2c0.1,0,0.2,0.1,0.3,0.1c0.2,0.1,0.4,0.1,0.5,0.1c0.1,0,0.2,0.1,0.3,0.1
	c0.3,0,0.6,0.1,0.8,0.1c0,0,0,0,0,0c0,0,0,0,0,0c0,0,0,0,0,0c0,0,0,0,0,0c0.3,0,0.6,0,0.9-0.1c0,0,0.1,0,0.1,0c0,0,0,0,0.1,0
	l405.2-83.1c2.3-0.5,4.1-2.4,4.4-4.8l1.1-9.1C490.1,277.8,489.9,276.6,489.2,275.5z M408,157.9l5.8-1.1l1-0.2l14.5,24.7l-1.1,0.2
	l-5.8,1.1l-13.8,2.7l-14.1-24.9L408,157.9z M431.4,192.2l-0.6,4.5l-0.3,0.1l-19.7,3.9l0.1-2.2l0.1-2.3l17.2-3.4L431.4,192.2z
	 M77,352.4L21.4,211.1l-0.1-3.4l5.7-1.1l-0.1-0.2c0.4-0.2,0.8-0.4,1.2-0.7c0,0,0,0,0,0l0.3,0.6l9.6,23.6l-0.1-0.1l39.3,97V352.4z
	 M39.4,204.3l-2.1-5.2l-2.1-5.2l-3-7.3l106.2-20l7.1,14.8c1.9,3.9,6.1,6,10.3,5.2l26.7-5c0,0,0,0,0,0l1.2-0.2l32.3-6c0,0,0,0,0,0
	l33.2-6.2c0,0,0,0,0,0l9.1-1.7c0,0,0,0,0,0l0.1,0c0,0,0.1,0,0.1,0c0.2,0,0.5-0.1,0.7-0.2c0,0,0.1,0,0.1,0c0.2-0.1,0.4-0.2,0.7-0.3
	c0,0,0.1,0,0.1-0.1c0.2-0.1,0.5-0.2,0.7-0.4c0,0,0,0,0,0c1-0.6,2-1.5,2.7-2.8c0.1-0.1,0.1-0.2,0.2-0.3c0-0.1,0-0.1,0.1-0.2
	c0,0,0-0.1,0.1-0.1c0-0.1,0-0.1,0.1-0.2c0.1-0.2,0.2-0.4,0.2-0.6c0-0.1,0-0.1,0.1-0.2c0.1-0.3,0.1-0.5,0.2-0.8c0,0,0-0.1,0-0.1
	c0-0.2,0-0.4,0-0.6c0-0.2,0-0.4,0-0.6c0,0,0-0.1,0-0.1c0-0.4-0.1-0.8-0.2-1.2c0,0,0-0.1,0-0.1c0-0.2-0.1-0.4-0.2-0.6
	c0-0.1-0.1-0.2-0.1-0.3c0-0.1-0.1-0.2-0.1-0.3c-0.1-0.2-0.2-0.3-0.2-0.5c0,0,0-0.1-0.1-0.1c0-0.1-0.1-0.1-0.1-0.2l-6.4-10.8l54.4-10
	l3.2,5.9l2.8,5.1l2.8,5.1l59.3,108.8l-234.7,47.1l-51.1,10.3l-7.8,1.6L39.4,204.3z M382.5,271.2v13.7l-57.1,11.8v-14L382.5,271.2z
	 M167.3,314.5v16.2l-60.1,12.5l-19.1,4V337v-6.6l2.1-0.4l39.4-7.9L167.3,314.5z M478.4,282.8L85.9,363.3l-4.2,0.9l-0.9-2.3l-1.3-3.4
	c0.6,0.4,1.3,0.8,2.1,0.9c0.4,0.1,0.7,0.1,1.1,0.1c0.4,0,0.8,0,1.1-0.1l8.1-1.7l82.1-17.1c2.6-0.5,4.4-2.8,4.4-5.4v-22.9l0.3-0.1
	c0.8,8.6,5.3,8.9,7.3,8.5c1.9-0.4,2.7-1.9,1.7-4.8c-0.6-1.7-0.8-3.7-0.9-5.2l8.9-1.8c0.8,8.6,5.3,8.9,7.3,8.5
	c1.9-0.4,2.7-1.9,1.7-4.8c-0.6-1.7-0.8-3.7-1-5.2l8.5-1.7c0.8,8.6,5.3,8.9,7.3,8.5c1.9-0.4,2.7-1.9,1.7-4.8c-0.6-1.7-0.8-3.7-1-5.2
	l8.9-1.8c0.8,8.6,5.3,8.9,7.3,8.5c1.9-0.4,2.7-1.9,1.7-4.8c-0.6-1.7-0.8-3.7-1-5.2l8.9-1.8c0.8,8.6,5.3,8.9,7.3,8.5
	c1.9-0.4,2.7-1.9,1.7-4.8c-0.6-1.7-0.8-3.7-1-5.2l8.5-1.7c0.8,8.6,5.3,8.9,7.3,8.5c1.9-0.4,2.7-1.9,1.7-4.8
	c-0.6-1.7-0.8-3.7-0.9-5.2l8.9-1.8c0.8,8.6,5.3,8.9,7.3,8.5c1.9-0.4,2.7-1.9,1.7-4.8c-0.6-1.7-0.8-3.7-0.9-5.2l26.8-5.4v18.6
	c0,1.7,0.7,3.2,2,4.3c1,0.8,2.2,1.2,3.5,1.2c0.4,0,0.7,0,1.1-0.1l68.2-14c2.6-0.5,4.4-2.8,4.4-5.4v-25c0,0,0-0.1,0-0.1
	c0-0.1,0-0.2,0-0.3c0-0.1,0-0.2,0-0.3c0-0.1,0-0.2-0.1-0.3c0-0.1,0-0.2-0.1-0.3c0-0.1-0.1-0.2-0.1-0.3c0-0.1-0.1-0.2-0.1-0.3
	c0-0.1-0.1-0.2-0.1-0.3c0-0.1-0.1-0.2-0.1-0.3c0-0.1,0-0.1-0.1-0.2l-61.2-112.2l64.5-12.1l5.9,10.2l-17.3,3.4c-0.1,0-0.1,0-0.2,0
	c0,0-0.1,0-0.1,0c0,0-0.1,0-0.1,0c-0.2,0.1-0.4,0.1-0.6,0.2c-0.1,0-0.1,0-0.2,0.1c-0.2,0.1-0.5,0.2-0.7,0.4c0,0-0.1,0.1-0.1,0.1
	c-0.2,0.1-0.3,0.2-0.5,0.4c-0.1,0.1-0.1,0.1-0.2,0.2c-0.2,0.1-0.3,0.3-0.4,0.5c0,0-0.1,0.1-0.1,0.1c-0.2,0.2-0.3,0.4-0.4,0.6
	c0,0.1-0.1,0.1-0.1,0.2c-0.1,0.1-0.1,0.2-0.2,0.3c0,0.1,0,0.1-0.1,0.2c0,0.1-0.1,0.2-0.1,0.2c-0.1,0.2-0.1,0.4-0.2,0.6
	c0,0.1,0,0.1,0,0.2c-0.1,0.3-0.1,0.5-0.1,0.8c0,0,0,0,0,0.1l-0.7,16c0,1,0.2,2.1,0.7,3l19.9,34.9c0,0,0,0,0,0
	c0.1,0.2,0.2,0.4,0.4,0.6c0,0.1,0.1,0.1,0.2,0.2c0.1,0.1,0.2,0.2,0.3,0.3c0.1,0.1,0.1,0.1,0.2,0.2c0.1,0.1,0.1,0.1,0.2,0.2
	c0,0,0.1,0,0.1,0.1c0.2,0.2,0.4,0.3,0.6,0.5c0,0,0.1,0,0.1,0.1c0.3,0.1,0.5,0.3,0.8,0.4c0.1,0,0.2,0.1,0.2,0.1
	c0.2,0.1,0.4,0.1,0.6,0.2c0.1,0,0.2,0,0.2,0c0.3,0,0.6,0.1,0.9,0.1c0,0,0,0,0,0c0,0,0,0,0,0c0,0,0,0,0,0c0.3,0,0.6,0,1-0.1
	c0,0,0.1,0,0.1,0l30.4-6l42.3,72.6L478.4,282.8z M101,293.5c1.5,1.7,3.7,2.8,6,2.8c0.4,0,0.9,0,1.3-0.1l14.3-2.5
	c2.4-0.4,4.4-1.9,5.5-4c1.1-2.1,1.3-4.6,0.3-6.8l-14.3-33.5l-1.6-3.7c-1.4-3.4-5.1-5.3-8.7-4.6l-13.6,2.6c-2.3,0.4-4.3,1.9-5.4,4
	c-1.1,2.1-1.2,4.5-0.3,6.7l15.3,37.1C100.1,292.2,100.5,292.9,101,293.5z M103.4,252.4l5.8,13.5l7.4,17.4l-7.6,1.3l-3.1-7.6
	l-9.6-23.3L103.4,252.4z M145.4,282.7c1.3,2.9,4.1,4.7,7.2,4.7c0.5,0,0.9,0,1.4-0.1l14.2-2.5c0.4-0.1,0.8-0.2,1.2-0.3
	c1.8-0.6,3.4-1.9,4.3-3.7c0.1-0.2,0.2-0.4,0.3-0.7c0.8-2,0.8-4.2-0.1-6.2l-16.6-37.2c-1.5-3.4-5.1-5.2-8.7-4.5l-13.6,2.6
	c-2.3,0.4-4.3,1.9-5.4,4c-1.1,2.1-1.2,4.6-0.3,6.7L145.4,282.7z M148.2,243.7l13.8,31l-7.5,1.3l-13.3-31L148.2,243.7z"/>
</svg>
