<?xml version="1.0" encoding="utf-8"?>
<!-- Generator: Adobe Illustrator 23.0.3, SVG Export Plug-In . SVG Version: 6.00 Build 0)  -->
<svg version="1.1" id="Ebene_1" xmlns="http://www.w3.org/2000/svg" xmlns:xlink="http://www.w3.org/1999/xlink" x="0px" y="0px"
	 width="500px" height="500px" viewBox="0 0 500 500" style="enable-background:new 0 0 500 500;" xml:space="preserve">
<g>
	<path d="M170.1,368.5c-1.1-2.4-4.2-3.5-6.9-2.5v0c-2.7,1-4.1,3.8-3,6.1l2.2,4.8c1.1,2.4,4.6,3.1,7.3,2.1c2.7-1,3.7-3.4,2.6-5.7
		L170.1,368.5z"/>
	<path d="M150.8,372.5c-1.1-2.4-4.2-3.5-6.9-2.5c-2.7,1-4.1,3.8-3,6.1l2.2,4.8c1.1,2.4,4.6,3.1,7.3,2.1s3.7-3.4,2.6-5.7L150.8,372.5
		z"/>
	<path d="M248,352.8c-1.1-2.4-4.2-3.5-6.9-2.5c-2.7,1-4.1,3.8-3,6.1l2.2,4.8c1.1,2.4,4.6,3.1,7.3,2.1c2.7-1,3.7-3.4,2.6-5.7
		L248,352.8z"/>
	<path d="M189.1,364.9c-1.1-2.4-4.2-3.5-6.9-2.5c-2.7,1-4.1,3.8-3,6.1l2.2,4.8c1.1,2.4,4.6,3.1,7.3,2.1c2.7-1,3.7-3.4,2.6-5.7
		L189.1,364.9z"/>
	<path d="M489.4,323.7l-15.7-31.3l0.4-11.3c0,0,0-0.1,0-0.1c0-0.1,0-0.2,0-0.3c0-0.1,0-0.2,0-0.3c0-0.1,0-0.2,0-0.3
		c0-0.1,0-0.2-0.1-0.3c0-0.1,0-0.2-0.1-0.3c0-0.1-0.1-0.2-0.1-0.3c0-0.1-0.1-0.2-0.1-0.3c0-0.1-0.1-0.2-0.1-0.3c0,0,0-0.1,0-0.1
		l-71.3-140.7c-1.1-2.1-3.3-3.2-5.6-2.8l-1.6,0.3l-24.2-48.3c-1-2.1-3.3-3.2-5.6-2.8l-75.4,14.2L281.1,81c-1-2.1-3.3-3.2-5.6-2.8
		l-82.7,15.3c0,0,0,0-0.1,0c0,0,0,0-0.1,0c0,0-0.1,0-0.1,0c-0.2,0.1-0.4,0.1-0.7,0.2c-0.1,0-0.1,0-0.2,0.1c-0.2,0.1-0.5,0.2-0.7,0.3
		c-0.1,0-0.1,0.1-0.2,0.1c-0.2,0.1-0.4,0.2-0.5,0.4c0,0-0.1,0.1-0.1,0.1c-0.2,0.2-0.4,0.4-0.5,0.6c0,0-0.1,0.1-0.1,0.1
		c-0.1,0.2-0.2,0.3-0.4,0.5c0,0.1-0.1,0.1-0.1,0.2c0,0,0,0,0,0.1c-0.1,0.2-0.2,0.4-0.3,0.6c0,0.1,0,0.1-0.1,0.2
		c-0.1,0.2-0.1,0.4-0.2,0.6c0,0.1,0,0.1,0,0.2c0,0.3-0.1,0.5-0.1,0.8c0,0,0,0,0,0.1v19.1l-78.9,14.9c-1.2-1.6-3.2-2.4-5.2-2.1
		l-23.5,4.3c0,0-0.1,0-0.1,0c0,0-0.1,0-0.1,0c0,0-0.1,0-0.1,0c-0.2,0.1-0.4,0.1-0.6,0.2c0,0-0.1,0-0.1,0.1c-0.2,0.1-0.5,0.2-0.7,0.4
		c-0.1,0-0.1,0.1-0.2,0.1c-0.2,0.1-0.3,0.2-0.5,0.4c0,0-0.1,0.1-0.1,0.1c-0.2,0.2-0.4,0.4-0.5,0.6c0,0-0.1,0.1-0.1,0.1
		c-0.1,0.2-0.2,0.3-0.3,0.5c0,0.1-0.1,0.1-0.1,0.2c0,0,0,0.1-0.1,0.1c-0.1,0.2-0.2,0.4-0.3,0.6c0,0,0,0.1,0,0.1
		c0,0.1-0.1,0.3-0.1,0.4l-62.5,11.8c-2.5,0.5-4.2,2.6-4.2,5.1v14.5c0,0.7,0.1,1.3,0.4,1.9l96.6,246.7c0.8,2,2.7,3.3,4.9,3.3
		c0.4,0,0.7,0,1.1-0.1l372.6-77c2.4-0.5,4.1-2.5,4.2-5l0.4-13.7C490,325.3,489.8,324.5,489.4,323.7z M394.6,146.1l0.1,0l66.4,131.1
		l-0.8,0.2l-5.3,1.1l-328.7,66.4L71.7,208.2l317.6-61.1L394.6,146.1z M463.5,287.4l-0.2,7.3l-0.5,17.2l-188.5,38.1v-24.2l185.7-37.8
		L463.5,287.4z M273.5,89.1l5.6,11.4l2.4,4.9l2.4,4.9l0.6,1.2l-73.3,14l-0.6-1.3l-2.2-4.9l-2.2-4.9l-5.2-11.8L273.5,89.1z
		 M287,121.5v16l-73.7,14v-16v0l8.5-1.6L287,121.5z M479.3,335.5L115,410.7L20.4,169.1v-9.1l56.8-10.7l3.9,8.3c0,0,0,0,0,0.1
		c0.1,0.2,0.2,0.3,0.3,0.5c0,0.1,0.1,0.1,0.1,0.2c0.1,0.1,0.2,0.2,0.3,0.4c0,0.1,0.1,0.1,0.1,0.2c0.1,0.1,0.3,0.3,0.4,0.4
		c0,0,0,0,0.1,0.1c0,0,0,0,0,0c0,0,0,0,0,0c0.2,0.2,0.4,0.3,0.6,0.4c0.1,0,0.2,0.1,0.2,0.1c0.2,0.1,0.3,0.2,0.5,0.2
		c0.1,0,0.2,0.1,0.3,0.1c0.2,0.1,0.4,0.1,0.6,0.2c0.1,0,0.2,0,0.2,0.1c0.3,0,0.5,0.1,0.8,0.1c0.3,0,0.6,0,0.9-0.1c0,0,0.1,0,0.1,0
		l23.5-4.3c2.5-0.5,4.3-2.6,4.3-5.1V144c0-0.1,0-0.2,0-0.3c0-0.1,0-0.2,0-0.3c0-0.1,0-0.2-0.1-0.3c0-0.1,0-0.2,0-0.2
		c0-0.2-0.1-0.3-0.1-0.5c0,0,0,0,0-0.1c0,0,0-0.1,0-0.1l75.1-14.2l14,31.9c0.4,1,1.2,1.8,2.1,2.4c0.2,0.1,0.4,0.2,0.6,0.3h0
		c0,0,0,0,0,0c0.6,0.3,1.4,0.4,2.1,0.4c0.3,0,0.7,0,1-0.1l84.1-16c2.5-0.5,4.2-2.6,4.2-5.1v-26.6v0c0-0.2,0-0.4,0-0.6
		c0,0,0-0.1,0-0.1c0-0.2,0-0.3-0.1-0.5c0-0.1,0-0.1,0-0.2c0-0.1-0.1-0.3-0.1-0.4c0-0.1,0-0.1-0.1-0.2c0-0.1-0.1-0.2-0.2-0.4
		c0,0,0,0,0,0l-2.3-4.7l68.7-13l21.1,42.2L63.5,199.1c0,0,0,0,0,0c0,0,0,0,0,0c-0.3,0.1-0.6,0.2-0.9,0.3c-0.1,0-0.2,0.1-0.3,0.1
		c-0.2,0.1-0.4,0.2-0.6,0.3c-0.1,0.1-0.2,0.1-0.3,0.2c-0.2,0.1-0.3,0.2-0.5,0.4c-0.1,0.1-0.2,0.2-0.3,0.3c-0.1,0.1-0.3,0.3-0.4,0.5
		c-0.1,0.1-0.1,0.2-0.2,0.3c-0.1,0.2-0.2,0.3-0.3,0.5c-0.1,0.1-0.1,0.2-0.1,0.3c-0.1,0.2-0.1,0.4-0.2,0.6c0,0.1-0.1,0.2-0.1,0.3
		c0,0.2-0.1,0.4-0.1,0.7c0,0.1,0,0.2,0,0.3c0,0,0,0,0,0.1l0.3,28.3c0,0.6,0.1,1.3,0.4,1.9l59.4,148.7c0.8,2,2.7,3.3,4.8,3.3
		c0.4,0,0.7,0,1.1-0.1c2.5-0.5,4.2-2.8,4.1-5.3l-0.9-25.9l135.3-27.4v28.8c0,1.6,0.7,3,1.9,4c0.9,0.8,2.1,1.2,3.3,1.2
		c0.3,0,0.7,0,1-0.1l198.8-40.2c2.4-0.5,4.1-2.5,4.2-5l0.1-2.1l6.5,12.9L479.3,335.5z"/>
	<path d="M208.9,360.8c-1.1-2.4-4.2-3.5-6.9-2.5c-2.7,1-4.1,3.8-3,6.1l2.2,4.8c1.1,2.4,4.6,3.1,7.3,2.1c2.7-1,3.7-3.4,2.6-5.7
		L208.9,360.8z"/>
	<path d="M228.2,356.8c-1.1-2.4-4.2-3.5-6.9-2.5c-2.7,1-4.1,3.8-3,6.1l2.2,4.8c1.1,2.4,4.6,3.1,7.3,2.1c2.7-1,3.7-3.4,2.6-5.7
		L228.2,356.8z"/>
</g>
</svg>
