<?xml version="1.0" encoding="utf-8"?>
<!-- Generator: Adobe Illustrator 23.0.3, SVG Export Plug-In . SVG Version: 6.00 Build 0)  -->
<svg version="1.1" id="Ebene_1" xmlns="http://www.w3.org/2000/svg" xmlns:xlink="http://www.w3.org/1999/xlink" x="0px" y="0px"
	 width="500px" height="500px" viewBox="0 0 500 500" style="enable-background:new 0 0 500 500;" xml:space="preserve">
<path d="M489.2,275.5l-24-41.3l0.1-0.8c0-0.1,0-0.1,0-0.2c0-0.1,0-0.2,0-0.3c0-0.1,0-0.2,0-0.4c0-0.1,0-0.2,0-0.3c0-0.1,0-0.2,0-0.3
	c0-0.1,0-0.2-0.1-0.3c0-0.1,0-0.2-0.1-0.3c0-0.1-0.1-0.2-0.1-0.3c0-0.1-0.1-0.2-0.1-0.3c0-0.1-0.1-0.2-0.1-0.3
	c0-0.1-0.1-0.2-0.2-0.3c0,0,0-0.1-0.1-0.1l-13.4-22.9c-0.7-1.3-1.9-2.1-3.3-2.5l-44.2-76c-1.2-2-3.5-3.1-5.8-2.7l-71.9,13.4
	l-6.8-12.5c-1.1-2.1-3.5-3.2-5.9-2.8l-65.1,12c-2,0.4-3.7,1.7-4.5,3.5c-0.3,0.7-0.5,1.4-0.6,2.2c0,0,0,0,0,0c0,0.2,0,0.4,0,0.5
	l-0.3,16.8l-24.7,4.6l-3-5.7c-1.1-2.2-3.5-3.3-5.9-2.9l-28.6,5.4c0,0,0,0-0.1,0c0,0,0,0-0.1,0c-0.2,0-0.3,0.1-0.4,0.1
	c-0.1,0-0.3,0.1-0.4,0.1c-0.2,0.1-0.3,0.1-0.5,0.2c-0.1,0.1-0.3,0.1-0.4,0.2c-0.2,0.1-0.3,0.2-0.4,0.3c-0.1,0.1-0.2,0.2-0.3,0.2
	c-0.1,0.1-0.3,0.3-0.4,0.4c-0.1,0.1-0.2,0.2-0.3,0.3c-0.1,0.1-0.2,0.3-0.3,0.5c-0.1,0.1-0.1,0.2-0.2,0.3c-0.1,0.2-0.2,0.3-0.2,0.5
	c0,0.1-0.1,0.2-0.1,0.3c-0.1,0.2-0.1,0.4-0.2,0.6c0,0.1-0.1,0.2-0.1,0.3c-0.1,0.3-0.1,0.6-0.1,1v5.6l-21.1,3.9l-7.6-15.9
	c-1.6-3.3-5.1-5.1-8.7-4.4L23.7,176.8c-0.1,0-0.2,0-0.3,0c-1.4,0.3-2.6,1.1-3.4,2.2c0,0.1-0.1,0.1-0.1,0.2c-0.1,0.1-0.2,0.3-0.3,0.4
	c0,0.1-0.1,0.2-0.1,0.2c-0.1,0.1-0.1,0.2-0.2,0.4c0,0.1-0.1,0.2-0.1,0.4c-0.1,0.2-0.1,0.3-0.1,0.5c0,0.1,0,0.2-0.1,0.3
	c0,0.3-0.1,0.5-0.1,0.8c0,0,0,0.1,0,0.1v14.6l-4.4,0.8c-2.7,0.5-4.6,2.9-4.5,5.7l0.4,9.1c0,0.6,0.2,1.2,0.4,1.8L73,372.5
	c0,0,0,0,0,0c0,0.1,0.1,0.1,0.1,0.2c0.1,0.2,0.2,0.4,0.3,0.6c0.1,0.1,0.1,0.2,0.2,0.3c0.1,0.2,0.2,0.3,0.3,0.5
	c0.1,0.1,0.1,0.2,0.2,0.2c0.1,0.1,0.3,0.3,0.4,0.4c0.1,0.1,0.2,0.1,0.3,0.2c0.1,0.1,0.3,0.2,0.4,0.3c0.1,0.1,0.2,0.1,0.3,0.2
	c0.2,0.1,0.3,0.2,0.5,0.2c0.1,0,0.2,0.1,0.3,0.1c0.2,0.1,0.4,0.1,0.5,0.1c0.1,0,0.2,0.1,0.3,0.1c0.3,0,0.6,0.1,0.8,0.1c0,0,0,0,0,0
	c0,0,0,0,0,0c0,0,0,0,0,0c0,0,0,0,0,0c0.3,0,0.6,0,0.9-0.1c0,0,0.1,0,0.1,0c0,0,0,0,0.1,0l405.2-83.1c2.3-0.5,4.1-2.4,4.4-4.8
	l1.1-9.1C490.1,277.8,489.9,276.6,489.2,275.5z M138.4,166.5l7.1,14.8c1.9,3.9,6.1,6,10.3,5.2l26.7-5c0,0,0,0,0,0l1.1-0.2l13-2.4
	l54.8-10.2l6.7-1.3c0,0,0,0,0,0l0.1,0c0,0,0.1,0,0.1,0c0.2,0,0.5-0.1,0.7-0.2c0.1,0,0.1,0,0.2-0.1c0.2-0.1,0.4-0.2,0.7-0.3
	c0,0,0.1,0,0.1-0.1c1.3-0.6,2.6-1.6,3.4-3.2c0.1-0.1,0.1-0.2,0.2-0.3c0-0.1,0-0.1,0.1-0.2c0,0,0-0.1,0.1-0.1c0-0.1,0-0.1,0.1-0.2
	c0.1-0.2,0.2-0.5,0.2-0.7c0-0.1,0-0.1,0-0.2c0.1-0.3,0.1-0.5,0.2-0.8c0,0,0,0,0-0.1c0.1-0.4,0.1-0.8,0.1-1.2c0,0,0-0.1,0-0.1
	c0-0.4-0.1-0.8-0.2-1.2c0,0,0,0,0,0c0-0.2-0.1-0.4-0.2-0.6c0-0.1-0.1-0.2-0.1-0.3c0-0.1-0.1-0.2-0.1-0.4c-0.1-0.2-0.1-0.3-0.2-0.5
	c0-0.1,0-0.1-0.1-0.2c0-0.1-0.1-0.1-0.1-0.2l-6.4-10.8l54.4-10l3.2,5.9l2.8,5.1l2.8,5.1l59.3,108.8l-234.7,47.1l-51.1,10.3l-7.8,1.6
	L39.4,204.3l-2.1-5.2l-2.1-5.2l-3-7.3L138.4,166.5z M88.1,337v-6.7l2.1-0.4l39.4-7.9l37.7-7.6v16.2l-60.1,12.5l-19.1,4V337z
	 M382.5,271.2v13.7l-57.1,11.8v-14L382.5,271.2z M21.3,207.7l5.7-1.1l1.3-0.3l9.5,23.5l39.3,97v25.5L21.4,211.1L21.3,207.7z
	 M478.4,282.8L85.9,363.3l-4.2,0.9l-0.9-2.3l-1.3-3.4c0.6,0.4,1.3,0.8,2.1,0.9c0.4,0.1,0.7,0.1,1.1,0.1c0.4,0,0.8,0,1.1-0.1l8.1-1.7
	l82.1-17.1c2.6-0.5,4.4-2.8,4.4-5.4v-22.9l0.3-0.1c0.7,7.2,3.9,8.6,6.1,8.6c0.4,0,0.8-0.1,1.2-0.1c1.9-0.4,2.7-1.9,1.7-4.8
	c-0.6-1.7-0.8-3.7-0.9-5.2l8.9-1.8c0.7,7.2,3.9,8.6,6.1,8.6c0.4,0,0.8-0.1,1.2-0.1c1.9-0.4,2.7-1.9,1.7-4.8
	c-0.6-1.7-0.8-3.7-0.9-5.2l8.5-1.7c0.7,7.2,3.9,8.6,6.1,8.6c0.4,0,0.8-0.1,1.2-0.1c1.9-0.4,2.7-1.9,1.7-4.8c-0.6-1.7-0.8-3.7-1-5.2
	l8.9-1.8c0.7,7.2,3.9,8.6,6.1,8.6c0.4,0,0.8-0.1,1.2-0.1c1.9-0.4,2.7-1.9,1.7-4.8c-0.6-1.7-0.8-3.7-1-5.2l8.9-1.8
	c0.7,7.2,3.9,8.6,6.1,8.6c0.4,0,0.8-0.1,1.2-0.1c1.9-0.4,2.7-1.9,1.7-4.8c-0.6-1.7-0.8-3.7-1-5.2l8.5-1.7c0.7,7.2,3.9,8.6,6.1,8.6
	c0.4,0,0.8-0.1,1.2-0.1c1.9-0.4,2.7-1.9,1.7-4.8c-0.6-1.7-0.8-3.7-0.9-5.2l8.9-1.8c0.7,7.2,3.9,8.6,6.1,8.6c0.4,0,0.8-0.1,1.2-0.1
	c1.9-0.4,2.7-1.9,1.7-4.8c-0.6-1.7-0.8-3.7-0.9-5.2l26.8-5.4v18.6c0,1.7,0.7,3.2,2,4.3c1,0.8,2.2,1.2,3.5,1.2c0.4,0,0.7,0,1.1-0.1
	l68.2-14c2.6-0.5,4.4-2.8,4.4-5.4v-25c0,0,0-0.1,0-0.1c0-0.1,0-0.2,0-0.3c0-0.1,0-0.2,0-0.3c0-0.1,0-0.2-0.1-0.3
	c0-0.1,0-0.2-0.1-0.3c0-0.1-0.1-0.2-0.1-0.3c0-0.1-0.1-0.2-0.1-0.3c0-0.1-0.1-0.2-0.1-0.3c0-0.1-0.1-0.2-0.1-0.3
	c0-0.1,0-0.1-0.1-0.2l-61.2-112.2l64.5-12.1l40,68.7l-11.3,2.2c0,0-0.1,0-0.1,0c0,0-0.1,0-0.1,0c0,0-0.1,0-0.1,0
	c-0.2,0.1-0.4,0.1-0.6,0.2c-0.1,0-0.1,0.1-0.2,0.1c-0.2,0.1-0.5,0.2-0.7,0.4c0,0,0,0,0,0c-0.2,0.1-0.4,0.3-0.6,0.4
	c-0.1,0.1-0.1,0.1-0.2,0.2c-0.1,0.1-0.3,0.3-0.4,0.4c-0.1,0.1-0.1,0.1-0.2,0.2c-0.2,0.2-0.3,0.4-0.5,0.6c0,0,0,0.1-0.1,0.1
	c-0.1,0.2-0.2,0.3-0.3,0.5c0,0,0,0.1,0,0.1c0,0.1-0.1,0.2-0.1,0.3c-0.1,0.2-0.1,0.4-0.2,0.5c0,0.1,0,0.2-0.1,0.2
	c-0.1,0.3-0.1,0.5-0.1,0.8c0,0,0,0,0,0l-0.7,10.9c-0.1,1.1,0.2,2.2,0.7,3.1l13.1,22.9c0,0.1,0.1,0.1,0.1,0.1
	c0.1,0.1,0.2,0.3,0.3,0.4c0.1,0.1,0.1,0.1,0.2,0.2c0.1,0.1,0.2,0.2,0.3,0.3c0.1,0.1,0.1,0.1,0.2,0.2c0,0,0.1,0.1,0.1,0.1
	c0,0,0.1,0.1,0.1,0.1c0.2,0.2,0.4,0.3,0.6,0.4c0,0,0.1,0.1,0.1,0.1c0.3,0.2,0.5,0.3,0.8,0.4c0.1,0,0.1,0,0.2,0.1
	c0.2,0.1,0.4,0.1,0.7,0.2c0.1,0,0.2,0,0.2,0c0.3,0,0.6,0.1,0.9,0.1c0,0,0,0,0,0c0,0,0,0,0,0c0,0,0,0,0,0c0.3,0,0.6,0,1-0.1
	c0,0,0.1,0,0.1,0l20.3-3.9c0.4-0.1,0.9-0.2,1.3-0.4l17.9,30.8L478.4,282.8z M449.4,229.1l-7.6,1.5l-2.5-4.4l-4.8-8.4l7.5-1.4
	l1.6-0.3l7.5,12.7L449.4,229.1z M99.7,291.4c0.3,0.8,0.7,1.5,1.3,2.1c1.5,1.7,3.7,2.8,6,2.8c0.4,0,0.9,0,1.3-0.1l14.3-2.5
	c2.4-0.4,4.4-1.9,5.5-4s1.3-4.6,0.3-6.8l-14.3-33.5l-1.6-3.7c-1.4-3.4-5.1-5.3-8.7-4.6l-13.6,2.6c0,0,0,0,0,0
	c-2.3,0.4-4.3,1.9-5.4,4c-1.1,2.1-1.2,4.5-0.3,6.7L99.7,291.4z M103.4,252.4l5.8,13.5l7.4,17.4l-7.6,1.3l-3.1-7.6l-9.6-23.3
	L103.4,252.4z M145.4,282.7c1.3,2.9,4.1,4.8,7.2,4.8c0.5,0,0.9,0,1.4-0.1l14.2-2.5c0.4-0.1,0.8-0.2,1.2-0.3c1.8-0.6,3.4-1.9,4.3-3.7
	c0.1-0.2,0.2-0.4,0.3-0.7c0.8-2,0.8-4.2-0.1-6.2l-16.6-37.2c-1.5-3.4-5-5.2-8.7-4.5l-13.6,2.6c-2.3,0.4-4.3,1.9-5.4,4
	c-1.1,2.1-1.2,4.5-0.3,6.7L145.4,282.7z M148.2,243.7l13.8,31l-7.5,1.3l-13.3-31L148.2,243.7z"/>
</svg>
