<?xml version="1.0" encoding="utf-8"?>
<!-- Generator: Adobe Illustrator 23.0.3, SVG Export Plug-In . SVG Version: 6.00 Build 0)  -->
<svg version="1.1" id="Ebene_1" xmlns="http://www.w3.org/2000/svg" xmlns:xlink="http://www.w3.org/1999/xlink" x="0px" y="0px"
	 width="500px" height="500px" viewBox="0 0 500 500" style="enable-background:new 0 0 500 500;" xml:space="preserve">
<path d="M489.3,287.7L472.5,258c0,0,0-0.1,0-0.1c0-0.1,0-0.2,0-0.3c0-0.1,0-0.2,0-0.3c0-0.1,0-0.2,0-0.3c0-0.1,0-0.2,0-0.3
	c0-0.1,0-0.2-0.1-0.3c0-0.1,0-0.2-0.1-0.3c0-0.1-0.1-0.2-0.1-0.3c0-0.1-0.1-0.2-0.1-0.3c0-0.1-0.1-0.2-0.1-0.3
	c0-0.1-0.1-0.2-0.1-0.3c0,0,0-0.1,0-0.1l-16-28.9c-0.7-1.2-1.8-2.1-3-2.5l-62.1-109.8c-1.2-2-3.5-3.1-5.8-2.7l-104.1,19.7l-0.9-1.8
	c-4-7.8-11.8-8.4-15.5-7.6L30.4,164.7c0,0,0,0,0,0c0,0,0,0,0,0c-0.3,0-0.5,0.1-0.8,0.2c0,0-0.1,0-0.1,0c0,0-0.1,0-0.1,0.1
	c-0.2,0.1-0.4,0.2-0.6,0.3c-0.1,0-0.1,0.1-0.2,0.1c-0.2,0.1-0.4,0.3-0.7,0.5c0,0-0.1,0.1-0.1,0.1c-0.2,0.1-0.3,0.3-0.5,0.4
	c-0.1,0.1-0.1,0.1-0.2,0.2c-0.1,0.1-0.2,0.3-0.3,0.5c0,0.1-0.1,0.1-0.1,0.2c-0.1,0.2-0.3,0.4-0.4,0.7c0,0,0,0,0,0c0,0,0,0.1,0,0.1
	c-0.1,0.2-0.2,0.4-0.2,0.7c0,0.1,0,0.2-0.1,0.3c0,0.2-0.1,0.4-0.1,0.6c0,0.1,0,0.2,0,0.2c0,0.3,0,0.5,0,0.8c0,0,0,0,0,0l0.7,7.8
	l-12.2,2.3c-2.8,0.5-4.7,3.1-4.4,6l1.4,13.6c0.1,0.5,0.2,0.9,0.3,1.4l70.4,184.1c0.8,2.2,2.9,3.5,5.1,3.5c0.4,0,0.7,0,1.1-0.1
	l394.9-81.5c2.2-0.5,3.9-2.2,4.3-4.4l2.3-12.1C490.1,290.1,489.9,288.8,489.3,287.7z M477.5,297.8L90.8,377.6L22.3,198.5l-0.8-7.9
	l6.2-1.2l0.1,0.8c0,0.5,0.2,1,0.3,1.5l2.1,5.5c0,0,0,0,0,0c0.1,0.3,0.2,0.5,0.4,0.8c0,0,0.1,0.1,0.1,0.1c0.1,0.2,0.3,0.5,0.5,0.7
	c0,0,0.1,0.1,0.1,0.1c0.2,0.2,0.4,0.4,0.6,0.5c0,0,0,0,0.1,0c0.2,0.1,0.4,0.3,0.6,0.4c0,0,0,0,0,0c0.2,0.1,0.4,0.2,0.7,0.3
	c0.1,0.1,0.3,0.1,0.4,0.2c0.2,0.1,0.3,0.1,0.5,0.1c0.1,0,0.3,0.1,0.4,0.1c0.1,0,0.3,0,0.4,0c0.1,0,0.3,0,0.4,0c0,0,0,0,0,0
	c0.1,0,0.3,0,0.4,0c0.2,0,0.3,0,0.5,0l0.2,0l7,17.7c0.1,0.3,0.3,0.6,0.5,0.9c-0.1,1.1,0,2,0.1,2.4l2.3,16.8c0.1,0.4,0.2,0.8,0.3,1.2
	l43.8,112.6c0,0,0,0,0,0.1c0,0,0,0.1,0,0.1l3.2,7.5c0,0,0,0.1,0.1,0.1c0.1,0.2,0.2,0.3,0.3,0.5c0,0.1,0.1,0.1,0.1,0.2
	c0.1,0.2,0.3,0.4,0.4,0.6c0,0,0.1,0.1,0.1,0.1c0.1,0.1,0.3,0.3,0.4,0.4c0.1,0.1,0.1,0.1,0.2,0.2c0.1,0,0.1,0.1,0.2,0.1
	c0,0,0.1,0.1,0.1,0.1c0.2,0.1,0.3,0.2,0.5,0.3c0.1,0.1,0.2,0.1,0.3,0.1c0.2,0.1,0.3,0.2,0.5,0.2c0.1,0,0.2,0.1,0.3,0.1
	c0.2,0.1,0.4,0.1,0.6,0.2c0.1,0,0.1,0,0.2,0c0.3,0,0.6,0.1,0.9,0.1c0.1,0,0.1,0,0.2,0c0.1,0,0.3,0,0.4,0c0.1,0,0.1,0,0.2,0
	c0.1,0,0.2,0,0.3,0L355,310.9c2.3-0.5,4.1-2.4,4.4-4.7l1.7-14.4c0.9-8.8-1.4-14.1-1.6-14.7c0-0.1-0.1-0.2-0.1-0.2l-7-13.3
	l-15.7-30.7c-0.9-1.8-2.7-2.9-4.7-3l-45.8-89.1l97-18.3l58,102.6l-8.7,1.7c-0.1,0-0.1,0-0.2,0c0,0-0.1,0-0.1,0c0,0-0.1,0-0.1,0
	c-0.2,0.1-0.4,0.1-0.6,0.2c0,0-0.1,0-0.2,0.1c-0.2,0.1-0.5,0.2-0.7,0.4c-0.1,0-0.1,0.1-0.2,0.1c-0.2,0.1-0.3,0.2-0.5,0.4
	c-0.1,0.1-0.1,0.1-0.2,0.2c-0.2,0.2-0.4,0.4-0.5,0.6c0,0,0,0.1-0.1,0.1c-0.1,0.2-0.3,0.4-0.4,0.6c0,0.1-0.1,0.2-0.1,0.2
	c0,0.1-0.1,0.1-0.1,0.2c0,0.1-0.1,0.2-0.1,0.3c0,0.1-0.1,0.1-0.1,0.2c-0.1,0.2-0.2,0.5-0.2,0.8c0,0.1,0,0.1,0,0.2
	c0,0.2-0.1,0.4-0.1,0.7c0,0,0,0.1,0,0.1l-0.1,6.5c0,1,0.2,1.9,0.7,2.7l16,28.5c0,0,0,0,0,0c0.1,0.2,0.2,0.4,0.4,0.6
	c0.1,0.1,0.1,0.1,0.2,0.2c0.1,0.1,0.2,0.2,0.3,0.3c0.1,0.1,0.1,0.1,0.2,0.2c0.1,0.1,0.1,0.1,0.2,0.2c0,0,0.1,0,0.1,0.1
	c0.2,0.2,0.4,0.3,0.7,0.5c0,0,0,0,0.1,0c0.2,0.1,0.5,0.3,0.8,0.4c0.1,0,0.2,0.1,0.2,0.1c0.2,0.1,0.4,0.1,0.6,0.2
	c0.1,0,0.2,0,0.3,0.1c0.3,0,0.6,0.1,0.9,0.1c0,0,0,0,0,0c0,0,0,0,0,0c0.2,0,0.4,0,0.6,0c0,0,0.1,0,0.1,0c0.2,0,0.3,0,0.5-0.1
	l15.3-3.4l12.8,22.6L477.5,297.8z M266.8,131.8c0.2,0,1.5-0.3,2.6,0.8c0.3,0.3,0.6,0.6,0.8,1.1l2,4l2.6,5.1l44.3,86.2
	c-2.7,0.4-5.1,1.4-6.6,3.6c-1.1,1.7-1.4,3.8-0.6,5.9c1.2,3.4,3.9,4.4,7.2,4.4c2.7,0,5.9-0.7,9-1.4c0.2,0,0.3-0.1,0.5-0.1l13.8,27.1
	l6.9,13.2c0.2,0.6,1.2,3.7,0.7,8.9l-1.2,10.4l-245.2,50.2c-0.3-3.4-0.8-7.5-1.6-11.1l3.9-0.8c2.7-0.5,4.6-3.1,4.4-5.8
	c-0.1-1.2-0.7-7.1-3.9-11c-1.2-1.4-3-2.2-4.9-2c-0.7,0.1-6,0.8-9.8,5.3L57,236.2L54.8,220c0-0.1,0-0.2-0.1-0.3
	c0-0.1,0.2-0.1,0.2-0.2c0.2-0.3,1.2-1.4,4.7-2.1l2.6-0.3c1.5-0.2,2.8-1,3.7-2.2c0.9-1.2,1.2-2.7,1-4.2l-0.5-2.6
	c-0.3-1.5-1.1-2.7-2.3-3.6c-1.2-0.8-2.7-1.1-4.2-0.8l-8.1,1.6l-7.5-18.9l-2.1-5.2l-2.1-5.2l-0.1-0.3c0,0,0-0.1-0.1-0.1
	c-0.1-0.1-0.2-0.6-0.5-1.2l227-42.4C266.7,131.8,266.7,131.8,266.8,131.8z M457.5,253.8l-4.3,0.9l-0.6,0.1l-10.7-19l4.8-1l1.4-0.3
	l10.5,18.9L457.5,253.8z"/>
</svg>
