<?xml version="1.0" encoding="utf-8"?>
<!-- Generator: Adobe Illustrator 23.0.3, SVG Export Plug-In . SVG Version: 6.00 Build 0)  -->
<svg version="1.1" id="Ebene_1" xmlns="http://www.w3.org/2000/svg" xmlns:xlink="http://www.w3.org/1999/xlink" x="0px" y="0px"
	 width="500px" height="500px" viewBox="0 0 500 500" style="enable-background:new 0 0 500 500;" xml:space="preserve">
<path d="M489.2,270.4l-7-10.9l1.9-12.7c0,0,0-0.1,0-0.1c0-0.3,0-0.5,0-0.8c0-0.1,0-0.1,0-0.2c0-0.9-0.3-1.7-0.8-2.5L410.2,134
	c-1.1-1.6-3.1-2.5-5-2.1l-120,22.6l-88.8,16.2L84.2,191.9c0,0,0,0-0.1,0c0,0,0,0,0,0c0,0-0.1,0-0.1,0c-0.2,0-0.4,0.1-0.6,0.2
	c-0.1,0-0.1,0-0.2,0.1c-0.2,0.1-0.4,0.2-0.6,0.3c-0.1,0-0.1,0.1-0.2,0.1c-0.2,0.1-0.3,0.2-0.5,0.4c0,0-0.1,0.1-0.1,0.1
	c-0.2,0.2-0.3,0.3-0.5,0.5c0,0-0.1,0.1-0.1,0.1c-0.1,0.2-0.2,0.3-0.3,0.5c0,0-0.1,0.1-0.1,0.1c0,0,0,0.1-0.1,0.1
	c-0.1,0.2-0.2,0.4-0.3,0.6c0,0,0,0.1,0,0.1c-0.1,0.2-0.1,0.4-0.2,0.6c0,0.1,0,0.1,0,0.2c0,0.2-0.1,0.5-0.1,0.7c0,0,0,0,0,0.1v9.9
	L14,218.9c-2.3,0.4-4,2.5-4,4.9v5.2c0,0.6,0.1,1.2,0.3,1.8l52.8,134.2c0.8,1.9,2.6,3.1,4.6,3.1c0.3,0,0.7,0,1-0.1l416.4-85.6
	c1.9-0.4,3.4-1.9,3.8-3.8l0.9-4.6C490.2,272.8,489.9,271.5,489.2,270.4z M473.3,252.2l-0.3,2.1l-0.6,3.8l-2.5,0.5L355.5,282l0.7-6.3
	l110.5-22.2l5.2-1L473.3,252.2z M198.2,180.4l88.8-16.2l116.8-22l2.8,4.1l64.5,96.2l-4.8,1l-5.2,1l-320,64.2l0,0l-14.1-31.3
	L98,213.4l-2.1-4.6l-2.1-4.6l-1.7-3.7L198.2,180.4z M346,277.7l-0.7,6.4L262,301.2l0.4-6.7L346,277.7z M252.4,296.5l-0.4,6.7
	l-109,22.3v-7.1L252.4,296.5z M55,291.5l-3.2-7.9l6.7-1.3l3.2,7.9L55,291.5z M63.6,299.9v1.9l-6.8,1.3v-1.9L63.6,299.9z M70.8,357.6
	l-17.2-43.8l15.9-3.1c2.3-0.5,4-2.5,4-4.8v-11.9c0,0,0-0.1,0-0.1c0-0.1,0-0.2,0-0.3c0-0.1,0-0.2,0-0.3c0-0.1,0-0.2,0-0.3
	c0-0.1,0-0.2-0.1-0.3c0-0.1,0-0.2-0.1-0.3c0-0.1-0.1-0.2-0.1-0.3c0,0,0-0.1,0-0.1l-7-17.2c-0.9-2.2-3.2-3.4-5.5-3L44,275
	c0,0,0,0,0,0c0,0,0,0,0,0c0,0,0,0,0,0c-0.3,0-0.5,0.1-0.7,0.2c-0.1,0-0.1,0-0.2,0.1c-0.2,0.1-0.4,0.2-0.7,0.3c0,0-0.1,0.1-0.1,0.1
	c-0.2,0.1-0.4,0.2-0.5,0.4c0,0-0.1,0.1-0.1,0.1c-0.2,0.2-0.4,0.3-0.5,0.5c0,0-0.1,0.1-0.1,0.1c-0.1,0.2-0.3,0.3-0.4,0.5
	c0,0,0,0.1-0.1,0.1c0,0,0,0,0,0.1c-0.1,0.2-0.2,0.4-0.3,0.6c0,0.1,0,0.1-0.1,0.2c-0.1,0.2-0.1,0.4-0.2,0.7c0,0,0,0.1,0,0.1
	c0,0.1,0,0.3,0,0.4l-20.2-51.3v-0.2l61.2-11.3l11.5,26.1c0.8,1.8,2.6,2.9,4.5,2.9c0.7,0,1.3-0.1,2-0.4c0.7-0.3,1.3-0.8,1.8-1.3
	l16.5,36.7l-0.1,15.2c0,0.7,0.1,1.4,0.4,2l15.8,35.8c0,0,0,0,0,0c0.1,0.2,0.2,0.4,0.3,0.6c0,0,0,0.1,0.1,0.1
	c0.1,0.1,0.2,0.3,0.3,0.4c0,0.1,0.1,0.1,0.1,0.2c0.1,0.1,0.2,0.2,0.3,0.3c0.1,0,0.1,0.1,0.2,0.1c0,0,0,0,0.1,0.1
	c0,0,0.1,0.1,0.2,0.1c0.1,0.1,0.3,0.2,0.5,0.3c0.1,0,0.2,0.1,0.2,0.1c0.2,0.1,0.3,0.1,0.5,0.2c0.1,0,0.2,0.1,0.3,0.1
	c0.2,0.1,0.4,0.1,0.5,0.1c0.1,0,0.1,0,0.2,0c0.3,0,0.5,0.1,0.8,0.1c0,0,0.1,0,0.1,0c0.3,0,0.5,0,0.8-0.1c0,0,0,0,0,0l118.6-24.3l0,0
	l217.9-44.7l3.9,6.1L70.8,357.6z"/>
</svg>
