<?xml version="1.0" encoding="utf-8"?>
<!-- Generator: Adobe Illustrator 23.0.3, SVG Export Plug-In . SVG Version: 6.00 Build 0)  -->
<svg version="1.1" id="Ebene_1" xmlns="http://www.w3.org/2000/svg" xmlns:xlink="http://www.w3.org/1999/xlink" x="0px" y="0px"
	 width="260.5px" height="73.3px" viewBox="0 0 260.5 73.3" style="background: white; enable-background:new 0 0 260.5 73.3;" xml:space="preserve">
<style type="text/css">
	.st0{fill:none;}
	.st1{fill:#003B68;}
	.st2{fill:url(#SVGID_1_);}
	.st3{fill:url(#SVGID_2_);}
	.st4{fill:url(#SVGID_3_);}
	.st5{fill:url(#SVGID_4_);}
	.st6{fill:url(#SVGID_5_);}
	.st7{fill:url(#SVGID_6_);}
	.st8{fill:url(#SVGID_7_);}
	.st9{fill:url(#SVGID_8_);}
</style>
<pattern  x="331.7" y="-197" width="301.3" height="301.3" patternUnits="userSpaceOnUse" id="新規パターンスウォッチ_7" viewBox="0 -301.3 301.3 301.3" style="overflow:visible;">
	<g>
		<rect y="-301.3" class="st0" width="301.3" height="301.3"/>
		<rect y="-301.3" class="st1" width="301.3" height="301.3"/>
	</g>
</pattern>
<g>
	<g>
		<g>
			<g>
				<path d="M257.7,35.4c-2.1,2.2-4.5,3.5-7.5,4.1c-2,0.4-3.8,0.5-5.8,0.3c-2.7-0.3-5-1.2-7.1-2.8c-1.8-1.3-3.1-2.8-4.2-4.7
					c-0.9-1.5-1.4-2.9-1.6-4.6c-0.4-2.4-0.3-4.4,0.3-6.8c1.4-5.3,5.4-9,10.7-10.1c3-0.6,5.7-0.6,8.7,0.2c2.1,0.6,3.8,1.5,5.5,3
					c1,1,1.7,1.9,2.4,3.2c0.8,1.5,1.1,2.9,1,4.5h-9.5c-0.2-1.3-0.8-2.3-1.8-3.1c-1.3-1-3-1.1-4.5-0.2c-1,0.6-1.6,1.4-1.9,2.5
					c-0.8,2.6-0.9,5-0.1,7.7c0.3,1.1,0.8,2,1.7,2.8c0.9,0.9,2.1,1.3,3.4,1.1c0.8-0.1,1.5-0.5,2-1.1c0.6-0.6,0.9-1.3,1-2.1
					c0.1-0.6,0.2-1.1,0.2-1.7h10C260.7,30.5,259.8,33.2,257.7,35.4"/>
				<rect x="219.4" width="10.4" height="7.4"/>
				<rect x="219.4" y="11.1" width="10.4" height="27.9"/>
				<path d="M197.9,14.1c1.4-1.2,2.7-2,4.3-2.8c2.7-1.2,5.4-1.4,8.2-0.6c3,0.9,5.2,3,6.2,6.1c0.5,1.5,0.7,2.8,0.7,4.3v18h-11V22.8
					c0-0.5-0.1-1-0.2-1.5c-0.3-0.9-0.9-1.6-1.8-2c-2-0.8-4.2-0.1-5.3,1.7c-0.4,0.8-0.7,1.5-0.7,2.4V39h-10.7V11.1h10L197.9,14.1"/>
				<path d="M75,14.1c1.4-1.2,2.7-2,4.3-2.8c2.7-1.2,5.4-1.4,8.2-0.6c3,0.9,5.2,3,6.2,6.1c0.5,1.5,0.7,2.8,0.7,4.3v18h-11V22.8
					c0-0.5-0.1-1-0.2-1.5c-0.3-0.9-0.9-1.6-1.8-2c-2-0.8-4.2-0.1-5.2,1.7c-0.5,0.8-0.7,1.5-0.7,2.4V39H64.8V11.1h10L75,14.1"/>
				<path d="M140.5,28.8c0.8,0.1,1.5,0.3,2.2,0.6c0.6,0.2,1.1,0.7,1.2,1.4c0.2,0.7,0,1.4-0.6,1.9c-0.5,0.5-1.1,0.8-1.9,0.9
					c-1,0.2-1.8,0.1-2.8-0.3c-0.5-0.2-0.8-0.4-1.2-0.7c-0.5-0.4-0.8-0.9-1-1.5c-0.2-0.5-0.2-0.9-0.2-1.5h-10.2v0.6
					c0,1,0.1,1.8,0.5,2.7c0.5,1.3,1.2,2.4,2.3,3.4c1.4,1.3,2.8,2.1,4.6,2.6c3.8,1.1,7.2,1.3,11,0.7c1.8-0.3,3.3-0.8,4.9-1.6
					c0.7-0.4,1.3-0.8,1.9-1.3c2.7-2.3,3.8-5.8,2.7-9.3c-0.4-1.3-1.1-2.3-2.1-3.2c-1.4-1.2-2.8-2-4.6-2.5c-0.4-0.1-0.7-0.2-1.1-0.3
					c-2.2-0.6-4-1-6.3-1.3c-0.6-0.1-1.1-0.2-1.7-0.3c-0.3-0.1-0.5-0.1-0.8-0.3c-0.6-0.3-0.9-1-0.6-1.7c0,0,0-0.1,0-0.1
					c0.3-0.6,0.8-1,1.5-1.2c1.2-0.3,2.2-0.3,3.4,0.1c1.1,0.4,1.8,1.4,1.7,2.5h9.8c0-1.2-0.2-2.2-0.6-3.4c-0.4-1.2-1.1-2-2-2.8
					c-0.8-0.7-1.6-1.1-2.6-1.5c-1-0.4-1.8-0.6-2.8-0.8c-2.4-0.4-4.5-0.5-7-0.4c-1.4,0.1-2.6,0.3-4,0.6c-1.9,0.4-3.3,1.2-4.8,2.3
					c-1.3,1-2.1,2.2-2.6,3.7c-0.2,0.7-0.4,1.3-0.4,2c-0.1,1.2,0.1,2.3,0.6,3.4c0.8,2,2.2,3.5,4.3,4.3c1,0.4,1.9,0.7,3,0.9
					C136.5,28.1,138.4,28.4,140.5,28.8"/>
				<path d="M18.9,27h-7.1v-9.1h4.6c0.9,0,1.6,0,2.5-0.1c1.2-0.1,2.2-0.6,3-1.6c0.4-0.5,0.6-1,0.7-1.7c0.1-0.5,0.1-1,0-1.6
					c-0.2-2-1.9-3.6-3.9-3.6h-6.9V39H0V0h19.3c0.8,0,1.4,0,2.2,0.1c5.1,0.3,9.3,3.1,11.5,7.8c1.1,2.4,1.5,4.8,1.2,7.4
					c-0.6,5.6-4.5,10-10,11.2C22.4,26.8,20.8,27,18.9,27"/>
				<path d="M173.8,10.6c-1.1-0.2-2-0.2-3.2-0.2c-1.1,0-2.1,0.1-3.1,0.2c-3.2,0.5-5.8,1.8-8.1,4c-2.5,2.4-3.8,5.2-4.2,8.7
					c-0.2,2.1,0,3.9,0.5,6c0.9,3.1,2.5,5.6,5.1,7.6c1.7,1.3,3.4,2.1,5.5,2.6c1.5,0.3,2.8,0.5,4.3,0.5c1.5,0,2.8-0.1,4.3-0.5
					c2.1-0.5,3.8-1.2,5.5-2.6l-6-6.5c-1,2.1-3.4,3.1-5.5,2.1c-1-0.4-1.7-1.1-2.1-2.1c-0.4-0.9-0.6-1.7-0.8-2.7
					c-0.3-2-0.3-3.7,0.1-5.6c0.2-1,0.5-1.8,1.1-2.7c1.2-1.9,3.7-2.4,5.6-1.2c0.5,0.3,0.8,0.7,1.2,1.2c0.6,0.9,0.9,1.7,1.1,2.7
					c0.4,1.9,0.4,3.6,0.1,5.6c-0.2,1-0.4,1.8-0.8,2.7l6,6.5c2.6-2,4.2-4.4,5.1-7.6c0.6-2.1,0.7-3.9,0.5-6c-0.3-3.5-1.7-6.3-4.2-8.7
					C179.6,12.4,177,11.1,173.8,10.6"/>
				<path d="M125.1,36.8c-0.2-2.3-0.2-4.2-0.3-6.5c-0.1-3-0.1-5.6-0.1-8.6c0-1.6-0.2-3-0.6-4.6c-0.5-2.1-1.7-3.6-3.6-4.7
					c-1.1-0.6-2.1-1-3.4-1.3c-4-0.9-7.5-0.9-11.6-0.2c-1.1,0.2-2.1,0.5-3.1,0.9c-2.5,1-4.1,2.9-4.9,5.4c-0.3,1-0.4,1.9-0.3,2.9
					c0,0.2,0.1,0.3,0.2,0.5l9.3,0.2c0-0.6,0-1.1,0.3-1.7c0.3-0.9,0.9-1.5,1.8-1.8c1.3-0.5,2.5-0.5,3.7-0.1c0.8,0.3,1.4,0.9,1.7,1.7
					c0.2,0.5,0.1,1-0.2,1.5c-0.3,0.4-0.6,0.7-1.1,0.8c-0.3,0.1-0.5,0.2-0.8,0.3c-1.3,0.3-2.4,0.6-3.7,0.8c-1.1,0.2-1.9,0.3-3,0.5
					c-1.4,0.3-2.6,0.6-4,1c-1.3,0.4-2.2,1-3.2,1.9c-1.3,1.2-2,2.5-2.2,4.2c-0.2,1.1-0.1,2.1,0.1,3.2c0.6,2.9,2.7,5.1,5.5,5.9
					c3.2,0.9,6.1,0.8,9.2-0.5c1.5-0.6,2.6-1.4,3.6-2.7l-0.7-4.8c-0.5,0.7-1.1,1.2-1.8,1.6c-0.7,0.3-1.4,0.5-2.2,0.6
					c-0.7,0.1-1.3,0-1.9-0.2c-0.5-0.1-0.9-0.4-1.3-0.8c-0.3-0.3-0.5-0.7-0.6-1.2c-0.2-0.7,0.1-1.4,0.6-1.8c0.4-0.3,0.7-0.5,1.2-0.7
					c1.1-0.4,2-0.7,3.1-1c1.4-0.4,2.5-0.8,3.7-1.4c0.1,1,0.1,1.9,0,2.9c-0.1,0.7-0.3,1.4-0.7,2l0.7,4.8c0.2,0.7,0.4,1.3,0.6,1.9
					c0.1,0.4,0.3,0.7,0.6,1h10.3C125.4,38.3,125.1,37.6,125.1,36.8"/>
				<path d="M62.7,36.8c-0.2-2.3-0.2-4.2-0.3-6.5c-0.1-3-0.1-5.6-0.1-8.6c0-1.6-0.2-3-0.6-4.6c-0.5-2.1-1.7-3.6-3.6-4.7
					c-1.1-0.6-2.1-1-3.4-1.3c-4-0.9-7.5-0.9-11.6-0.2c-1.1,0.2-2.1,0.5-3.1,0.9c-2.5,1-4.2,2.9-4.9,5.4c-0.3,1-0.4,1.9-0.3,2.9
					c0,0.2,0.1,0.3,0.1,0.5l9.4,0.2c0-0.6,0.1-1.1,0.3-1.7c0.3-0.9,0.9-1.5,1.8-1.8c1.3-0.5,2.5-0.5,3.7-0.1
					c0.8,0.3,1.4,0.9,1.7,1.7c0.2,0.5,0.1,1-0.2,1.5c-0.3,0.4-0.6,0.7-1.1,0.8c-0.3,0.1-0.5,0.2-0.8,0.3c-1.3,0.3-2.4,0.6-3.7,0.8
					c-1.1,0.2-1.9,0.3-3,0.5c-1.4,0.3-2.6,0.6-4,1c-1.3,0.4-2.2,1-3.2,1.9c-1.3,1.2-2,2.5-2.2,4.2c-0.2,1.1-0.1,2.1,0.1,3.2
					c0.7,2.9,2.7,5.1,5.5,5.9c3.2,0.9,6.1,0.8,9.2-0.5c1.5-0.6,2.6-1.4,3.6-2.7l-0.7-4.8c-0.5,0.7-1,1.2-1.9,1.6
					c-0.7,0.3-1.4,0.5-2.2,0.6c-0.7,0.1-1.3,0-1.9-0.2c-0.5-0.1-0.9-0.4-1.3-0.8c-0.3-0.3-0.5-0.7-0.6-1.2c-0.2-0.7,0.1-1.4,0.6-1.8
					c0.4-0.3,0.7-0.5,1.2-0.7c1.1-0.4,2-0.7,3.1-1c1.3-0.4,2.4-0.8,3.7-1.4c0.1,1,0.1,1.9,0,2.9c-0.1,0.7-0.3,1.4-0.7,2l0.7,4.8
					c0.2,0.7,0.4,1.3,0.6,1.9c0.1,0.4,0.3,0.7,0.6,1h10.3C63,38.3,62.8,37.6,62.7,36.8"/>
			</g>
		</g>
	</g>
	<g>
		
			<pattern  id="SVGID_1_" xlink:href="#śĖįŤ¶Ź„ÉĎ„āŅ„Éľ„É≥„āĻ„ā¶„ā©„ÉÉ„ÉĀ_7" patternTransform="matrix(1.0473 0 0 1.0473 69.2359 215.2881)">
		</pattern>
		<path class="st2" d="M61.1,54.9c0-0.2,0.1-0.3,0.3-0.3h2.8c0.2,0,0.3,0.1,0.3,0.3v17c0,0.9-0.4,1.1-2.2,1.1h-0.8
			c-0.2,0-0.3-0.1-0.3-0.3V54.9z"/>
		
			<pattern  id="SVGID_2_" xlink:href="#śĖįŤ¶Ź„ÉĎ„āŅ„Éľ„É≥„āĻ„ā¶„ā©„ÉÉ„ÉĀ_7" patternTransform="matrix(1.0473 0 0 1.0473 69.2359 215.2881)">
		</pattern>
		<path class="st3" d="M84.3,65.3c0-5.4-0.5-9.6-0.8-10.8h0.6c1.7,0,2.5,0.1,2.7,0.5c0.3,0.7,0.4,4.6,0.4,10.2
			c0,3.2-0.1,6.2-0.5,7.3c-0.1,0.4-0.5,0.5-2.3,0.5h-0.3c-0.4,0-0.7-0.1-0.8-0.2c-1.8-1.6-6.2-7.6-9.5-14.3
			c-0.1-0.1-0.3-0.2-0.3,0.1l0.3,13.3c0,0.9-0.5,1.1-2.3,1.1h-0.8c-0.2,0-0.3-0.1-0.3-0.3V54.9c0-0.2,0.1-0.3,0.3-0.3H75
			c0.2,0,0.2,0.1,0.3,0.3c3.8,7.8,7.4,12.7,8.5,13.8c0.1,0.2,0.3,0.2,0.3-0.1C84.2,67.7,84.3,66.5,84.3,65.3z"/>
		
			<pattern  id="SVGID_3_" xlink:href="#śĖįŤ¶Ź„ÉĎ„āŅ„Éľ„É≥„āĻ„ā¶„ā©„ÉÉ„ÉĀ_7" patternTransform="matrix(1.0473 0 0 1.0473 69.2359 215.2881)">
		</pattern>
		<path class="st4" d="M98.7,54.4c6.5,0,11.1,1.8,11.1,9c0,6.2-2.6,9.9-10.4,9.9c-2.4,0-4.3-0.2-5.4-0.6c-0.7-0.3-1.1-0.8-1.1-1.6
			V55c0-0.2,0.1-0.2,0.3-0.3C94.8,54.5,97.1,54.4,98.7,54.4z M98.8,56.9c-0.5,0-1.7,0.1-2.3,0.1c-0.2,0-0.2,0.1-0.2,0.2v12.5
			c0,0.4,0.1,0.7,0.5,0.7c0.5,0.1,1.4,0.2,2.4,0.2c4.9,0,7.1-2.2,7.1-7C106.3,58.8,104.1,56.9,98.8,56.9z"/>
		
			<pattern  id="SVGID_4_" xlink:href="#śĖįŤ¶Ź„ÉĎ„āŅ„Éľ„É≥„āĻ„ā¶„ā©„ÉÉ„ÉĀ_7" patternTransform="matrix(1.0473 0 0 1.0473 69.2359 215.2881)">
		</pattern>
		<path class="st5" d="M117.5,63.6c0,5.5,0.6,7.1,4.6,7.1c4.1,0,4.8-2.4,4.8-8.1c0-2.2-0.2-7-0.7-8.2h0.6c1.7,0,2.4,0,2.7,0.4
			c0.5,0.7,0.7,3.4,0.7,8.2c0,7-2.1,10.2-8.3,10.2c-7.1,0-7.8-3.5-7.8-7.9V54.9c0-0.2,0.1-0.3,0.3-0.3h2.8c0.2,0,0.3,0.1,0.3,0.3
			V63.6z"/>
		
			<pattern  id="SVGID_5_" xlink:href="#śĖįŤ¶Ź„ÉĎ„āŅ„Éľ„É≥„āĻ„ā¶„ā©„ÉÉ„ÉĀ_7" patternTransform="matrix(1.0473 0 0 1.0473 69.2359 215.2881)">
		</pattern>
		<path class="st6" d="M140.1,64.7c-4-1.4-5.5-2.3-5.5-5.3c0-3.5,3-5,7.3-5c2.2,0,4.1,0.3,5,1c0.3,0.3,0.4,0.5,0.4,1.2
			c0,0.4-0.1,0.9-0.3,1.4c-1.4-0.6-3-1.1-5-1.1c-2.9,0-4.2,0.9-4.2,2.5c0,1.4,0.9,2,4.5,3.1c4,1.2,5.3,2.7,5.3,5.2
			c0,4.2-2.7,5.7-7.7,5.7c-2.4,0-4.2-0.4-5-1.2c-0.6-0.5-0.9-1.2-0.9-2.2v-0.2c1.4,0.5,4.1,1,6.1,1c3,0,4.1-1.1,4.1-2.8
			C144.3,66.4,143.1,65.8,140.1,64.7z"/>
		
			<pattern  id="SVGID_6_" xlink:href="#śĖįŤ¶Ź„ÉĎ„āŅ„Éľ„É≥„āĻ„ā¶„ā©„ÉÉ„ÉĀ_7" patternTransform="matrix(1.0473 0 0 1.0473 69.2359 215.2881)">
		</pattern>
		<path class="st7" d="M155.4,57.2h-5.2c0.1-2.2,0.2-2.6,1.7-2.6h5.8c1.2,0,5.2,0,6.4-0.1c0,1.1-0.1,1.8-0.6,2.3
			c-0.4,0.3-1.2,0.4-4.8,0.4v14.7c0,0.9-0.5,1.1-2.3,1.1h-0.8c-0.2,0-0.3-0.1-0.3-0.3V57.2z"/>
		
			<pattern  id="SVGID_7_" xlink:href="#śĖįŤ¶Ź„ÉĎ„āŅ„Éľ„É≥„āĻ„ā¶„ā©„ÉÉ„ÉĀ_7" patternTransform="matrix(1.0473 0 0 1.0473 69.2359 215.2881)">
		</pattern>
		<path class="st8" d="M172.8,65.6c-0.2-0.2-0.2-0.2-0.2-0.3c0-1,0.5-1.8,1.4-1.9c2.1-0.4,3.9-1.1,3.9-3.6c0-2-1.6-2.9-4.2-2.9
			c-0.7,0-1.6,0.1-2.2,0.1c-0.2,0-0.2,0.1-0.2,0.2v14.7c0,0.9-0.5,1.1-2.3,1.1h-0.8c-0.2,0-0.3-0.1-0.3-0.3V55
			c0-0.2,0.1-0.2,0.3-0.3c1.2-0.2,3.9-0.4,5.4-0.4c5.6,0,7.7,1.5,7.7,5.3c0,3.3-2.1,4.7-4.4,5.3c-0.2,0.1-0.4,0.1-0.3,0.3
			c1.7,1.7,4.8,5.2,6.4,7.4c0.1,0.1,0.1,0.2,0.1,0.2c0,0.1-1.1,0.3-2.7,0.3c-0.9,0-1.3-0.2-1.6-0.6C177,70.3,174.8,67.6,172.8,65.6z
			"/>
		
			<pattern  id="SVGID_8_" xlink:href="#śĖįŤ¶Ź„ÉĎ„āŅ„Éľ„É≥„āĻ„ā¶„ā©„ÉÉ„ÉĀ_7" patternTransform="matrix(1.0473 0 0 1.0473 69.2359 215.2881)">
		</pattern>
		<path class="st9" d="M190.8,66.4c0-0.5,0-0.7-0.4-1.2c-1.4-2-5-7.7-6.2-10.4c0-0.1,0.1-0.2,0.3-0.2h3.1c0.2,0,0.2,0.1,0.3,0.1
			c1.5,3.3,3.8,7.1,4.3,7.8c0.2,0.3,0.4,0.5,0.5,0.5c0.2,0,0.4-0.2,0.5-0.5c1.4-2.1,4-6.6,4.7-8.1h0.7c1.8,0,2.4,0.1,2.4,0.6
			c0,0.3-0.2,0.8-0.8,1.8c-1.4,2.4-3.6,5.9-5.6,8.3c-0.3,0.4-0.3,0.4-0.3,1v5.6c0,0.9-0.5,1.1-2.3,1.1h-0.8c-0.2,0-0.3-0.1-0.3-0.3
			V66.4z"/>
	</g>
</g>
</svg>
