<?xml version="1.0" encoding="utf-8"?>
<!-- Generator: Adobe Illustrator 23.0.3, SVG Export Plug-In . SVG Version: 6.00 Build 0)  -->
<svg version="1.1" id="Ebene_1" xmlns="http://www.w3.org/2000/svg" xmlns:xlink="http://www.w3.org/1999/xlink" x="0px" y="0px"
	 width="500px" height="500px" viewBox="0 0 500 500" style="enable-background:new 0 0 500 500;" xml:space="preserve">
<style type="text/css">
	.st0{fill:#00A0C6;}
	.st1{fill:#ECEFF1;}
</style>
<g>
	<g id="Gruppe_1906" transform="translate(-1571.214 -3708.182)">
		<g id="Gruppe_1900" transform="translate(1639.51 3827.158)">
			<path id="Pfad_935" class="st0" d="M198.3,276.9c0,23.6-13.9,42.7-31,42.7s-31-19.1-31-42.7"/>
		</g>
		<g id="Gruppe_1901" transform="translate(1616.197 3747.197)">
			<path id="Pfad_936" class="st0" d="M194.3,319.2h103.1c0,0-14.2,0-14.2-33.6c0-27.2,7.9-89-23.8-124.6s-65.1-31.9-65.1-31.9
				s-33.4-3.7-65.1,31.9s-23.8,97.4-23.8,124.6c0,33.6-14.2,33.6-14.2,33.6H194.3"/>
		</g>
		<path d="M1944.9,4061.7h-2.8c-2.2-0.4-4.2-1.6-5.6-3.4c-2.9-3.3-6.4-10.4-6.4-25.5c0-3.9,0.2-8.5,0.4-13.9
			c1.3-30.8,3.5-82.3-29.6-114.1c-17.5-16.9-35.4-25.3-49.8-29.4c-0.5-15.8-13.4-28.5-29.4-28.5c-16,0-29,12.7-29.5,28.5
			c-14.4,4.1-32.3,12.5-49.8,29.4c-33,31.8-30.8,83.3-29.6,114.1c0.2,5.3,0.4,10,0.4,13.9c0,15.1-3.5,22.2-6.4,25.5
			c-1.4,1.8-3.4,3-5.6,3.4h-2.8c-9.2,0-16.7,7.5-16.7,16.7v11.9c0,9.2,7.5,16.7,16.7,16.7h75.9c1.6,24.8,22.1,44.4,47.2,44.5
			c25.2,0,45.7-19.7,47.3-44.5h75.8c9.2,0,16.7-7.5,16.7-16.7v-11.9C1961.6,4069.2,1954.2,4061.7,1944.9,4061.7z M1822.2,3855.8
			c10,0.2,18.2,7.7,19.5,17.3c-10.5-2-19.9-2-19.9-2s-9.3,0-19.9,2C1803.3,3863.2,1811.9,3855.6,1822.2,3855.8z M1722.4,4018.5
			c-1.3-31.1-3.3-78.1,26.7-107c13.7-13.5,30.7-23.2,49.3-28c7.5-2,15.9-3.1,23-3.3c0,0,0.2,0,0.4,0c0.2,0,0.4,0,0.4,0
			s37.8-0.9,72.3,31.4c30.4,28.5,28,75.9,26.7,107c-0.2,5.4-0.4,10.1-0.4,14.2c0,14.3,2.9,23.3,6.6,28.9h-211.2
			c3.7-5.6,6.6-14.6,6.6-28.9C1722.9,4028.7,1722.7,4024,1722.4,4018.5z M1821.8,4142.1c-20,0-36.4-15.5-37.9-35.1h75.8
			C1858.2,4126.6,1841.9,4142.1,1821.8,4142.1z M1952.3,4090.3c0,4.1-3.3,7.4-7.4,7.4h-246.2c-4.1,0-7.3-3.3-7.4-7.4v-11.9
			c0-4.1,3.3-7.3,7.4-7.4h246.2c4.1,0,7.3,3.3,7.4,7.4V4090.3z"/>
	</g>
	<g>
		<path class="st1" d="M146.7,56.8C71.3,56.8,10,118.1,10,193.4c0,3.3,2.7,6,6,6c3.3,0,6-2.7,6-6c0-68.8,56-124.7,124.7-124.7
			c3.3,0,6-2.7,6-6S150,56.8,146.7,56.8z"/>
		<path class="st1" d="M146.7,94.5c-54.5,0-98.9,44.4-98.9,98.9c0,3.3,2.7,6,6,6c3.3,0,6-2.7,6-6c0-48,39-87,87-87c3.3,0,6-2.7,6-6
			C152.6,97.2,150,94.5,146.7,94.5z"/>
		<path class="st1" d="M353.3,56.8c-3.3,0-6,2.7-6,6s2.7,6,6,6c68.8,0,124.7,56,124.7,124.7c0,3.3,2.7,6,6,6c3.3,0,6-2.7,6-6
			C490,118.1,428.7,56.8,353.3,56.8z"/>
		<path class="st1" d="M353.3,94.5c-3.3,0-6,2.7-6,6c0,3.3,2.7,6,6,6c48,0,87,39,87,87c0,3.3,2.7,6,6,6c3.3,0,6-2.7,6-6
			C452.2,138.9,407.9,94.5,353.3,94.5z"/>
	</g>
</g>
</svg>
