<?xml version="1.0" encoding="utf-8"?>
<!-- Generator: Adobe Illustrator 23.0.3, SVG Export Plug-In . SVG Version: 6.00 Build 0)  -->
<svg version="1.1" id="Ebene_1" xmlns="http://www.w3.org/2000/svg" xmlns:xlink="http://www.w3.org/1999/xlink" x="0px" y="0px"
	 width="500px" height="500px" viewBox="0 0 500 500" style="enable-background:new 0 0 500 500;" xml:space="preserve">
<style type="text/css">
	.st0{fill:#ECEFF1;}
</style>
<g>
	<g>
		<path class="st0" d="M146.7,56.8C71.3,56.8,10,118.1,10,193.4c0,3.3,2.7,6,6,6c3.3,0,6-2.7,6-6c0-68.8,56-124.7,124.7-124.7
			c3.3,0,6-2.7,6-6S150,56.8,146.7,56.8z"/>
		<path class="st0" d="M146.7,94.5c-54.5,0-98.9,44.4-98.9,98.9c0,3.3,2.7,6,6,6c3.3,0,6-2.7,6-6c0-48,39-87,87-87c3.3,0,6-2.7,6-6
			C152.6,97.2,150,94.5,146.7,94.5z"/>
		<path class="st0" d="M353.3,56.8c-3.3,0-6,2.7-6,6s2.7,6,6,6c68.8,0,124.7,56,124.7,124.7c0,3.3,2.7,6,6,6c3.3,0,6-2.7,6-6
			C490,118.1,428.7,56.8,353.3,56.8z"/>
		<path class="st0" d="M353.3,94.5c-3.3,0-6,2.7-6,6c0,3.3,2.7,6,6,6c48,0,87,39,87,87c0,3.3,2.7,6,6,6c3.3,0,6-2.7,6-6
			C452.2,138.9,407.9,94.5,353.3,94.5z"/>
	</g>
</g>
</svg>
