<?xml version="1.0" standalone="no"?>
<!DOCTYPE svg PUBLIC "-//W3C//DTD SVG 1.1//EN" "http://www.w3.org/Graphics/SVG/1.1/DTD/svg11.dtd">
<svg xmlns="http://www.w3.org/2000/svg">
<metadata>Copyright (C) 2019 by original authors @ fontello.com</metadata>
<defs>
<font id="panasonic_iot_webapp" horiz-adv-x="1000" >
<font-face font-family="panasonic_iot_webapp" font-weight="400" font-stretch="normal" units-per-em="1000" ascent="850" descent="-150" />
<missing-glyph horiz-adv-x="1000" />
<glyph glyph-name="icon-arrow-circle-small" unicode="&#xe800;" d="M500 830c-265 0-480-215-480-480 0-265 215-480 480-480s480 215 480 480c0 265-215 480-480 480z m0-912c-238 0-432 194-432 432 0 238 194 432 432 432 238 0 432-194 432-432 0-238-194-432-432-432z m-36 628l187-187-187-186-51 51 136 135-136 136 51 51z" horiz-adv-x="1000" />

<glyph glyph-name="icon-arrow-small" unicode="&#xe801;" d="M980 269h-649l154-154-115-115-350 350 350 350 115-115-154-154h649v-162z" horiz-adv-x="1000" />

<glyph glyph-name="icon-avatar-circle-large" unicode="&#xe802;" d="M500 830c-265 0-480-215-480-480 0-265 215-480 480-480 265 0 480 215 480 480 0 265-215 480-480 480z m0-257c59 0 108-48 108-107 0-60-49-108-108-108s-108 48-108 108c0 59 49 107 108 107z m153-439c-9-5-18-7-28-7h-250c-35 0-63 28-63 63 0 10 3 19 7 28 51 100 173 140 273 89 38-19 69-51 89-89 15-31 3-69-28-84z" horiz-adv-x="1000" />

<glyph glyph-name="icon-avatar-medium" unicode="&#xe803;" d="M500 830c128 0 232-104 232-231s-104-232-232-232-232 104-232 232 104 231 232 231z m329-945c-19-10-39-15-61-15h-536c-75 0-136 61-136 135 0 22 5 42 15 61 109 215 371 301 586 192 83-42 150-109 192-192 34-66 7-148-60-181z" horiz-adv-x="1000" />

<glyph glyph-name="icon-bluetooth-large" unicode="&#xe804;" d="M783 555l-359 275v-375l-144 124-63-73 181-156-181-157 63-72 144 124v-375l359 275-237 205 237 205z m-262 79l109-84-109-94v178z m109-484l-109-85v179l109-94z" horiz-adv-x="1000" />

<glyph glyph-name="icon-cablereplacement-small" unicode="&#xe805;" d="M604 87l48-49h-327l-104-105c-5-4-11-7-18-7-3 0-6 1-9 2-9 4-15 12-15 22v88h-135c-13 0-24 11-24 24v438c0 14 11 25 24 25h91v-49h-66v-389h134c14 0 25-11 25-25v-53l69 71c5 4 11 7 18 7h289z m376 663v-548c0-13-11-24-24-24h-175v-116c0-10-6-19-15-23-3-1-6-1-9-1-7 0-13 2-17 7l-46 45-48 49-38 39h-382c-13 0-24 11-24 24v274 49 225c0 13 11 24 24 24h730c13 0 24-11 24-24z m-49-25h-681v-200-49-250h368c6 0 12-3 17-7l11-11 48-49 39-39v82c0 13 10 24 24 24h175v499z m-483-296c25 0 46 20 46 45 0 1 0 2 0 2-1 24-21 44-46 44-24 0-44-20-45-44 0 0 0-1 0-2 0-25 20-45 45-45z m143 0c25 0 46 20 46 45 0 1 0 2-1 2-1 24-21 44-45 44-24 0-44-20-45-44 0 0-1-1-1-2 0-25 21-45 46-45z m143 0c25 0 45 20 45 45 0 25-20 46-45 46-17 0-32-9-40-23-4-7-6-14-6-23 0-8 2-16 6-22 8-14 23-23 40-23z" horiz-adv-x="1000" />

<glyph glyph-name="icon-check-large" unicode="&#xe806;" d="M965 555l-483-483-75-74 0 0c-20-20-52-20-72 0l-75 74c0 0 0 0 0 0l-225 226c-20 20-20 52 0 72l75 75c20 20 52 20 72 0l189-189 447 446c20 20 52 20 72 0l75-74c20-20 20-53 0-73z" horiz-adv-x="1000" />

<glyph glyph-name="icon-check-rounded-small" unicode="&#xe807;" d="M948 526l-506-506c-43-43-112-43-154 0 0 0 0 0 0 0l-236 236c-43 42-43 111 0 154l0 0c43 42 112 42 154 0l159-159 429 429c43 43 112 43 154 0s43-111 0-154z" horiz-adv-x="1000" />

<glyph glyph-name="icon-close-small_resized" unicode="&#xe808;" d="M615 350l235-235-115-115-235 235-235-235-115 115 235 235-235 235 115 115 235-235 235 235 115-115-235-235z" horiz-adv-x="1000" />

<glyph glyph-name="icon-close-small" unicode="&#xe809;" d="M658 350l322-322-158-158-322 323-322-323-158 158 323 322-323 323 158 157 322-322 322 322 158-157-322-323z" horiz-adv-x="1000" />

<glyph glyph-name="icon-doorbell-small" unicode="&#xe80a;" d="M964 562c-3-1-5-2-8-2-10 0-19 6-23 16-11 31-25 59-42 85-17 26-36 50-59 71-9 9-10 25 0 34 9 10 24 10 34 1 25-24 47-51 66-80 18-29 34-60 46-94 5-13-1-27-14-31z m-796 170c9 9 10 25 0 34-9 10-24 10-34 1-25-24-47-51-66-80-18-29-34-60-46-94-5-13 1-27 14-31 3-1 6-2 8-2 10 0 20 6 23 16 11 30 26 59 42 85 17 26 36 50 59 71z m-6-173c4-2 8-3 11-3 9 0 18 5 22 13 15 29 34 55 56 77 10 9 10 24 1 34-10 9-25 10-35 0-26-25-48-55-65-89-6-11-2-26 10-32z m643 10c4-8 13-13 22-13 3 0 7 1 11 3 12 6 16 21 10 32-17 34-39 64-66 89-9 10-25 9-34 0-9-10-9-25 1-34 22-22 41-48 56-77z m52-435c0-50-41-92-92-92h-140c-4-65-59-116-125-116s-120 51-125 116h-140c-50 0-92 42-92 92 0 49 38 88 85 92v140c-1 75 19 175 75 229 36 34 72 55 104 66v20c0 51 42 93 93 93 51 0 93-42 93-93v-20c32-11 69-32 104-66 68-66 76-162 76-229v-140c47-4 84-43 84-92z m-402 541c23 3 39 3 45 3 6 0 22 0 45-3v6c0 24-20 44-45 44s-45-20-45-44v-6z m-179-448h448v139c0 58-6 141-61 194-78 76-160 69-161 69-1 0-3 0-4 0-4 0-84 6-162-69-45-43-61-131-60-194v-139z m301-185h-153c4-38 37-67 76-67 39 0 72 29 77 67z m231 92c0 24-19 44-43 44h-530c-24 0-43-20-43-44s19-43 43-43h530c24 0 43 19 43 43z" horiz-adv-x="1000" />

<glyph glyph-name="icon-download-small" unicode="&#xe80b;" d="M20 24h960v-154h-960v154z m557 429v377h-154v-377h-198l275-276 276 276h-199" horiz-adv-x="1000" />

<glyph glyph-name="icon-error-rounded-small_resized" unicode="&#xe80c;" d="M830 174c43-43 43-112 0-154-42-43-111-43-154 0l-176 176-176-176c-42-43-111-43-154 0-43 43-43 112 0 154l176 176-176 176c-43 43-43 112 0 154 43 43 112 43 154 0l176-176 176 176c43 43 112 43 154 0 43-43 43-112 0-154l-176-176 176-176z" horiz-adv-x="1000" />

<glyph glyph-name="icon-error-rounded-small" unicode="&#xe80d;" d="M938 117c56-57 56-148 0-205-57-56-148-56-205 0l-233 234-233-234c-57-56-148-56-205 0-56 57-56 148 0 205l234 233-234 233c-56 57-56 148 0 205 57 56 148 56 205 0l233-234 233 234c57 56 148 56 205 0 56-57 56-148 0-205l-234-233 234-233z" horiz-adv-x="1000" />

<glyph glyph-name="icon-grid-medium" unicode="&#xe80e;" d="M402 448h-382v382h382v-382z m578 382h-382v-382h382v382z m-578-578h-382v-382h382v382z m578 0h-382v-382h382v382z" horiz-adv-x="1000" />

<glyph glyph-name="icon-home-medium" unicode="&#xe80f;" d="M913 498l-400 332-426-332v-628h291v359h244v-359h291l0 628z" horiz-adv-x="1000" />

<glyph glyph-name="icon-iframe-small" unicode="&#xe810;" d="M956 733h-912c-13 0-24-11-24-25v-150-566c0-14 11-25 24-25h912c13 0 24 11 24 25v566 150c0 14-11 25-24 25z m-480-717h-407v517h407v-517z m455 0h-407v517h407v-517z m0 566h-862v102h863v-102z m-735-325c-10 10-10 25 0 35l95 95c9 9 25 9 34 0 10-10 10-25 0-34l-78-78 78-78c10-10 10-25 0-35-5-4-11-7-17-7-6 0-12 3-17 7l-95 95z m479-60l78 78-78 78c-10 9-10 24 0 34 9 9 24 9 34 0l95-95c9-10 9-25 0-35l-95-95c-5-5-11-7-17-7-7 0-13 2-18 7-9 10-9 25 1 35z" horiz-adv-x="1000" />

<glyph glyph-name="icon-info-medium" unicode="&#xe811;" d="M591 642l-188 0v188h188l0-188z m132-584h-132v252h0v187h0-188-126l0-187 126 0v-253h-126l0-187h155l158 0v0h133v188z" horiz-adv-x="1000" />

<glyph glyph-name="icon-lightingmesh-small_resized" unicode="&#xe812;" d="M295 733h-162c-13 0-24-11-24-25v-157c0-13 11-24 24-24h161c14 0 25 11 25 24v157c0 14-11 25-24 25z m-25-157h-112v108h112v-108z m311 157h-161c-14 0-25-11-25-25v-157c0-13 11-24 25-24h161c13 0 24 11 24 24v157c0 14-11 25-24 25z m-25-157h-112v108h112v-108z m311 157h-161c-14 0-25-11-25-25v-157c0-13 11-24 25-24h161c13 0 24 11 24 24v157c0 14-11 25-24 25z m-25-157h-112v108h112v-108z m-547-126h-162c-13 0-24-11-24-24v-157c0-14 11-24 24-24h161c14 0 25 10 25 24v157c0 13-11 24-24 24z m-25-157h-112v109h112v-109z m311 157h-161c-14 0-25-11-25-24v-157c0-14 11-24 25-24h161c13 0 24 10 24 24v157c0 13-11 24-24 24z m-25-157h-112v109h112v-109z m311 157h-161c-14 0-25-11-25-24v-157c0-14 11-24 25-24h161c13 0 24 10 24 24v157c0 13-11 24-24 24z m-25-157h-112v109h112v-109z m-547-120h-162c-13 0-24-11-24-24v-157c0-14 11-24 24-24h161c14 0 25 10 25 24v157c0 13-11 24-24 24z m-25-157h-112v109h112v-109z m311 157h-161c-14 0-25-11-25-24v-157c0-14 11-24 25-24h161c13 0 24 10 24 24v157c0 13-11 24-24 24z m-25-157h-112v109h112v-109z m311 157h-161c-14 0-25-11-25-24v-157c0-14 11-24 25-24h161c13 0 24 10 24 24v157c0 13-11 24-24 24z m-25-157h-112v109h112v-109z" horiz-adv-x="1000" />

<glyph glyph-name="icon-lightingmesh-small" unicode="&#xe813;" d="M248 820h-198c-16 0-30-14-30-30v-193c0-16 14-30 30-30h198c16 0 30 14 30 30v193c0 16-14 30-30 30z m-30-193h-138v133h138v-133z m381 193h-198c-16 0-30-14-30-30v-193c0-16 14-30 30-30h198c16 0 30 14 30 30v193c0 16-14 30-30 30z m-30-193h-138v133h138v-133z m381 193h-198c-16 0-30-14-30-30v-193c0-16 14-30 30-30h198c16 0 30 14 30 30v193c0 16-14 30-30 30z m-30-193h-138v133h138v-133z m-672-154h-198c-16 0-30-14-30-30v-193c0-16 14-30 30-30h198c16 0 30 14 30 30v193c0 16-14 30-30 30z m-30-193h-138v133h138v-133z m381 193h-198c-16 0-30-14-30-30v-193c0-16 14-30 30-30h198c16 0 30 14 30 30v193c0 16-14 30-30 30z m-30-193h-138v133h138v-133z m381 193h-198c-16 0-30-14-30-30v-193c0-16 14-30 30-30h198c16 0 30 14 30 30v193c0 16-14 30-30 30z m-30-193h-138v133h138v-133z m-672-147h-198c-16 0-30-14-30-30v-193c0-16 14-30 30-30h198c16 0 30 14 30 30v193c0 16-14 30-30 30z m-30-193h-138v133h138v-133z m381 193h-198c-16 0-30-14-30-30v-193c0-16 14-30 30-30h198c16 0 30 14 30 30v193c0 16-14 30-30 30z m-30-193h-138v133h138v-133z m381 193h-198c-16 0-30-14-30-30v-193c0-16 14-30 30-30h198c16 0 30 14 30 30v193c0 16-14 30-30 30z m-30-193h-138v133h138v-133z" horiz-adv-x="1000" />

<glyph glyph-name="icon-loading-circle-large" unicode="&#xe814;" d="M500 830c-265 0-480-215-480-480s215-480 480-480 480 215 480 480-215 480-480 480z m0-927c-247 0-447 200-447 447s200 447 447 447 447-200 447-447-200-447-447-447z m43 440c0-28-22-51-50-51-28 0-51 23-51 51 0 28 23 51 51 51 28 0 50-23 50-51z m160 0c0-28-22-51-50-51-28 0-51 23-51 51 0 28 23 51 51 51 28 0 50-23 50-51z m-320 0c0-28-22-51-50-51-28 0-51 23-51 51 0 28 23 51 51 51 28 0 50-23 50-51z" horiz-adv-x="1000" />

<glyph glyph-name="icon-loading-rounded-small" unicode="&#xe815;" d="M616 350c0-64-52-116-116-116-64 0-116 52-116 116 0 64 52 116 116 116 64 0 116-52 116-116z m364 0c0-64-52-116-116-116-64 0-116 52-116 116 0 64 52 116 116 116 64 0 116-52 116-116z m-729 0c0-64-51-116-115-116-64 0-116 52-116 116 0 64 52 116 116 116 64 0 115-52 115-116z" horiz-adv-x="1000" />

<glyph glyph-name="icon-magnifier-circle-large" unicode="&#xe816;" d="M500 830c-265 0-480-215-480-480s215-480 480-480 480 215 480 480-215 480-480 480z m125-644l-60 59c-19-12-42-18-65-18-33 0-64 13-87 36-23 23-36 54-36 87 0 33 13 64 36 87 23 23 54 36 87 36 33 0 64-13 87-36 23-23 36-54 36-87 0-23-7-46-19-65l60-60-39-39z m-78 211c13-12 20-29 20-47 0-18-7-35-20-47-12-13-29-20-47-20-18 0-35 7-47 20-13 12-20 29-20 47 0 18 7 34 20 47 12 13 29 20 47 20 18 0 35-7 47-20z" horiz-adv-x="1000" />

<glyph glyph-name="icon-magnifier-medium" unicode="&#xe817;" d="M980 3l-200 200c40 64 62 138 62 216 0 110-43 213-120 291-78 77-181 120-291 120s-213-43-291-120c-77-78-120-181-120-291 0-110 43-213 120-291 78-77 181-120 291-120 78 0 152 22 216 62l200-200 133 133z m-549 193c-60 0-116 23-158 65-42 42-65 98-65 158s23 116 65 158c42 42 98 65 158 65s116-23 158-65c42-42 65-98 65-158s-23-116-65-158c-42-42-98-65-158-65z" horiz-adv-x="1000" />

<glyph glyph-name="icon-minus-small" unicode="&#xe818;" d="M20 427h960v-154h-960v154z" horiz-adv-x="1000" />

<glyph glyph-name="icon-plus-circle-large" unicode="&#xe819;" d="M500 830c-265 0-480-215-480-480s215-480 480-480 480 215 480 480-215 480-480 480z m0-927c-247 0-447 200-447 447s200 447 447 447 447-200 447-447-200-447-447-447z m25 480h119v-58h-119v-119h-58v119h-120v58h120v120h58v-120z" horiz-adv-x="1000" />

<glyph glyph-name="icon-plus-circle-small" unicode="&#xe81a;" d="M500 830c-265 0-480-215-480-480 0-265 215-480 480-480s480 215 480 480c0 265-215 480-480 480z m0-912c-238 0-432 194-432 432 0 238 194 432 432 432 238 0 432-194 432-432 0-238-194-432-432-432z m180 396l-144 0 1-144-72 0-1 144-144 0 0 72 144 0 0 144 72 0 0-144 144 0 0-72z" horiz-adv-x="1000" />

<glyph glyph-name="icon-plus-rounded-small_resized" unicode="&#xe81b;" d="M566 416h206c36 0 66-29 66-66v0c0-37-30-66-66-66h-206v-206c0-36-29-66-66-66h0c-36 0-66 30-66 66v206h-206c-36 0-66 29-66 66v0c0 37 30 66 66 66h206v206c0 36 29 66 66 66h0c36 0 66-30 66-66v-206z" horiz-adv-x="1000" />

<glyph glyph-name="icon-plus-rounded-small" unicode="&#xe81c;" d="M594 444h292c52 0 94-42 94-94v0c0-52-42-94-94-94h-292v-292c0-52-42-94-94-94h0c-52 0-94 42-94 94v292h-292c-52 0-94 42-94 94v0c0 52 42 94 94 94h292v292c0 52 42 94 94 94h0c52 0 94-42 94-94v-292z" horiz-adv-x="1000" />

<glyph glyph-name="icon-plus-small" unicode="&#xe81d;" d="M980 273h-403v-403h-154v403h-403v154h403v403h154v-403h403v-154z" horiz-adv-x="1000" />

<glyph glyph-name="icon-send-small" unicode="&#xe81e;" d="M533 84l-129-208c-7-11-25-6-25 8v244c0 14 5 27 14 38l431 469-542-445c-3-3-7-4-11-2l-223 77c-26 9-29 45-5 59l896 503c16 9 37-5 34-24l-115-766c-5-27-33-44-59-35l-250 88c-6 2-13 0-16-6z" horiz-adv-x="1000" />

<glyph glyph-name="icon-sendimg-small" unicode="&#xe81f;" d="M369 430c57 0 104 47 104 104s-47 103-104 103-104-46-104-103 47-104 104-104z m0 159c31 0 55-25 55-55s-24-55-55-55-55 24-55 55 25 55 55 55z m607-539c0 0 1 1 1 2 0 0 1 1 1 2 1 1 1 2 1 2 0 1 0 2 1 2 0 4 0 7 0 10-1 1-1 1-1 2 0 1 0 1-1 2 0 1-1 2-1 3 0 0-1 1-1 1-1 2-2 3-3 4 0 0 0 0 0 0l-113 113c-9 10-25 10-34 0-10-9-10-25 0-34l71-72h-514-150-164v104l175 129 125-125c4-4 10-7 17-7 6 0 12 3 17 7l260 261 163-163c0 0 0 0 0 0 1-1 2-2 3-3 1 0 2-1 2-1 1 0 2-1 3-1 0-1 1-1 2-1 1 0 1 0 2-1 1 0 3 0 4 0 0 0 1 0 1 0 0 0 0 0 0 0 1 0 3 0 4 0 1 1 2 1 2 1 1 0 2 0 3 1 0 0 1 1 2 1 0 0 1 1 2 1 1 1 2 2 3 3 0 0 0 0 0 0 0 0 0 0 0 0 2 1 3 2 3 4 1 0 1 1 1 2 1 0 1 1 2 2 0 1 0 2 0 2 1 1 1 2 1 2 0 2 0 4 0 5v440c0 13-10 24-24 24h-798c-13 0-24-11-24-24v-687c0-13 11-24 24-24h189 150 514l-71-71c-10-10-10-25 0-35 4-4 11-7 17-7 6 0 12 3 17 7l113 113c0 0 0 0 0 0 1 1 2 3 3 4z m-158 675v-356l-138 138c-9 10-25 10-34 0l-260-260-123 123c-8 8-22 9-31 2l-163-120v473h749z" horiz-adv-x="1000" />

<glyph glyph-name="icon-swipe-medium" unicode="&#xe820;" d="M20 638l666 192v-960h-666v768z m784 17v-785h176v836l-176-51z" horiz-adv-x="1000" />

<glyph glyph-name="icon-warning-large" unicode="&#xe821;" d="M971 28l-413 711c-26 45-90 45-115 0l-414-711c-26-45 6-100 58-100h826c52 0 84 55 58 100z m-468 11c-1 0-2 0-3 0v0c-32-1-59 24-60 57 0 1 0 2 0 3-1 32 25 59 57 59 1 0 2 0 3 0 32 2 59-23 60-55 0-2 0-3 0-4 1-32-24-59-57-60z m59 452l0 0c-3-31-7-62-11-93-6-53-12-106-18-159 0-3-1-7-2-11-2-15-16-27-32-26-16 0-29 12-31 28-4 38-8 76-13 113-4 36-8 73-12 109-2 13-3 26-5 39-3 16 7 32 23 35 3 1 7 1 10 0h29c10 0 20 0 30 0 16 2 31-10 32-26 1-3 0-6 0-9z" horiz-adv-x="1000" />

<glyph glyph-name="pan1026a_illustration_icon" unicode="&#xe822;" d="M978 299l-48 83 1 1c0 0 0 0 0 1 0 0 0 0 0 0 0 0 0 1 0 1 0 0 0 0 0 1 0 0 0 0 0 0 0 0 0 1-1 1 0 0 0 0 0 0 0 1 0 1 0 1 0 0 0 0 0 1 0 0 0 0 0 0 0 0-1 1-1 1 0 0 0 0 0 0l-27 46c-1 2-4 4-6 5l-89 152c-2 4-7 6-11 5l-144-27-14 25c-2 5-7 7-12 6l-130-24c-4-1-7-3-9-7 0-1-1-3-1-4 0 0 0 0 0 0 0-1 0-1 0-1l-1-34-49-9-6 11c-2 5-7 7-12 6l-57-11c0 0 0 0 0 0 0 0 0 0 0 0-1 0-1 0-1 0 0 0-1 0-1 0 0 0-1 0-1-1 0 0-1 0-1 0 0 0 0 0-1-1 0 0 0 0 0 0 0 0-1-1-1-1 0 0 0 0-1 0 0-1 0-1 0-1 0-1 0-1-1-1 0 0 0-1 0-1 0 0 0 0 0-1 0 0 0 0-1-1 0 0 0 0 0 0 0-1 0-2 0-2v-12l-42-7-15 31c-4 7-11 11-18 9l-230-44c0 0 0 0 0 0-3 0-5-2-7-4 0 0 0 0 0 0 0-1-1-1-1-1 0 0 0-1 0-1 0 0 0 0 0 0 0-1-1-1-1-1 0-1 0-1 0-1 0 0 0-1 0-1 0 0 0-1 0-1 0 0 0-1 0-1v-29l-9-1c-5-1-9-6-9-12l1-18c0-1 0-2 1-4l124-316c0 0 0 0 0 0 0 0 0 0 0 0 0-1 1-1 1-2 0 0 0 0 0 0 0-1 1-1 1-1 0 0 0-1 0-1 0 0 1 0 1 0 0-1 0-1 1-1 0 0 0 0 0 0 1-1 1-1 1-1 0 0 1 0 1 0 0 0 0 0 1 0 0-1 0-1 1-1 0 0 0 0 0 0 1 0 1 0 2 0 0 0 0 0 0 0 0 0 0 0 0 0 0 0 0 0 0 0 0 0 0 0 0 0 0 0 1 0 2 0 0 0 0 0 0 0 0 0 0 0 0 0l810 166c5 1 9 5 9 10l2 18c1 2 1 5-1 7z m-701 218l14-30c4-7 12-12 21-10l53 10c0 0 0 0 0 0l2 0 26 5 110 21 13 2c0 0 0 0 0 0l0 0c0 0 1 0 1 0 0 0 1 0 1 1 0 0 0 0 0 0 1 0 1 0 2 0 0 0 0 0 0 1 3 1 5 3 7 6 0 0 0 0 0 1 0 0 0 0 0 0 0 0 0 0 1 0 0 0 0 0 0 1 0 0 0 1 0 1 0 0 0 0 0 0 0 1 0 1 1 2 0 0 0 0 0 0 0 1 0 2 0 3 0 0 0 0 0 0 0 1 0 1-1 2 0 0 0 0 0 0 0 1 0 1 0 1 0 1 0 1 0 1 0 0 0 0 0 1-1 0-1 0-1 1 0 0 0 0 0 0 0 0 0 0 0 1l-13 21 109 20 6-12 6-10 5-10 119-218-469-94-103-20-15-4-93 230-4 11-5 10-6 15 213 40z m-101-341v13l4 1 79 16 76 15v-32l-121-25-38-8v20z m589 132v-28l-114-23v28l114 23z m-722 127l11 2 3 0 19-47 78-194v-51l-111 283 0 7z m914-151l-785-161-9-1-1 4-3 7c1-1 3-2 4-2 1 0 2 0 2 0 1 0 2 0 3 0l16 4 164 34c5 1 9 5 9 11v45l0 1c2-15 8-18 13-18 0 0 1 1 2 1 4 0 5 3 3 9-1 4-1 8-1 11l17 3c2-14 8-17 13-17 0 0 1 0 2 0 4 1 5 4 3 10-1 3-1 7-1 10l17 4c1-15 7-18 12-18 1 0 1 1 2 1 4 0 6 3 4 9-2 4-2 8-2 11l17 3c2-14 8-17 13-17 0 0 1 0 2 0 4 1 5 4 3 10-1 3-1 7-2 10l18 4c2-15 8-17 12-17 1 0 2 0 3 0 4 1 5 4 3 9-1 4-1 8-2 11l17 3c2-14 8-17 12-17 1 0 2 0 3 0 4 1 5 4 3 10-1 3-1 7-2 10l18 4c2-15 8-17 12-17 1 0 2 0 3 0 4 1 5 4 3 9-1 4-1 8-2 11l54 11v-38c0-3 1-6 4-8 2-2 4-3 7-3 1 0 1 0 2 1l137 28c5 1 8 5 8 10v50c0 0 0 1 0 1 0 0 0 0 0 0 0 0 0 1 0 1 0 0 0 0 0 0 0 1 0 1 0 1 0 0 0 0 0 1 0 0 0 0 0 0 0 0-1 1-1 1 0 0 0 0 0 0 0 1 0 1 0 1l-122 224 129 24 80-137-23-4c0 0 0 0 0 0 0 0 0 0 0 0 0 0-1 0-1 0 0-1 0-1-1-1 0 0 0 0 0 0-1 0-1 0-2-1 0 0 0 0 0 0 0 0 0 0-1-1 0 0 0 0 0 0 0 0-1-1-1-1 0 0 0 0 0 0-1-1-1-1-1-1 0 0 0-1-1-1 0 0 0 0 0-1 0 0 0 0 0 0 0 0 0 0 0 0-1-1-1-1-1-1 0-1 0-1 0-1 0 0 0-1 0-1 0 0 0 0 0 0l-2-22c0-2 1-5 2-6l26-46c0 0 0 0 0 0 0-1 1-1 1-1 0 0 0 0 0-1 0 0 1 0 1 0 0 0 0 0 0-1 0 0 0 0 0 0 0 0 1 0 1 0 0 0 0-1 1-1 0 0 0 0 0 0 1 0 1-1 2-1 0 0 0 0 0 0 0 0 1 0 1 0 1 0 1 0 1 0 0 0 1-1 2-1 0 0 0 0 0 0 0 0 0 0 0 0 0 0 0 0 0 0 0 0 1 0 2 1 0 0 0 0 0 0l40 7c1 1 2 1 3 1l36-61-1-6z m-58 108l-15-3-5 9-10 16 15 3 3 1 15-26-3 0z m-700-125c1-1 2-3 3-4 3-3 7-6 12-6 1 0 2 0 3 1l28 5c5 0 9 3 11 8s3 9 1 13l-29 67-3 8c-3 6-10 10-17 9l-28-5c0 0 0 0 0 0-4-1-8-4-10-8-3-5-3-9-1-14l30-74z m8 78l11-27 15-35-15-2-6 15-19 47 14 2z m84-60c2-6 8-10 14-10 1 0 2 0 3 0l28 5c1 0 2 1 3 1 3 1 7 4 8 7 1 1 1 1 1 2 2 4 2 8 0 12l-33 74c-3 7-10 11-18 9l-27-5c-5-1-9-4-11-8-2-4-2-9 0-13l32-74z m5 78l28-62-15-3-27 62 14 3z" horiz-adv-x="1000" />

<glyph glyph-name="pan1326c_illustration_icon" unicode="&#xe823;" d="M340 113c-2 5-8 7-14 5v0c-5-2-8-8-6-12l5-10c2-5 9-6 14-4 6 2 8 7 6 11l-5 10z m-38-8c-3 5-9 7-14 5-6-2-8-8-6-12l4-10c2-5 9-6 15-4s7 7 5 11l-4 10z m194 39c-2 5-8 7-14 5-5-2-8-7-6-12l5-9c2-5 9-7 14-5 6 2 8 7 5 12l-4 9z m-118-24c-2 5-8 7-14 5-5-2-8-7-6-12l5-10c2-4 9-6 14-4 6 2 8 7 6 12l-5 9z m601 83l-32 62 1 23c0 0 0 0 0 0 0 0 0 0 0 1 0 0 0 0 0 0 0 0 0 1 0 1 0 0 0 0 0 0 0 1 0 1 0 1 0 0 0 0 0 1 0 0-1 0-1 0 0 0 0 1 0 1 0 0 0 0 0 0l-142 281c-3 5-7 7-12 6l-3-1-48 97c-2 4-7 6-11 6l-151-29-18 35c-2 4-6 6-11 6l-165-31c0 0 0 0-1 0 0 0 0 0 0 0 0 0 0 0 0 0 0 0-1 0-1 0-1 0-1 0-1-1 0 0-1 0-1 0 0 0 0 0-1 0 0-1 0-1-1-1 0 0 0 0 0 0 0-1-1-1-1-2 0 0 0 0 0 0 0 0 0 0-1-1 0 0 0 0 0 0 0 0 0 0 0 0 0-1 0-1-1-2 0 0 0 0 0 0 0 0 0-1 0-1 0 0 0 0 0-1 0 0 0-1 0-1 0 0 0 0 0 0v-39l-158-29c-3 3-7 4-11 4l-47-9c0 0 0 0 0 0 0 0 0 0 0 0 0 0 0 0 0 0-1 0-1 0-1 0 0 0-1 0-1 0 0-1-1-1-1-1 0 0 0 0 0 0-1-1-1-1-1-1 0 0-1 0-1 0 0-1 0-1-1-2 0 0 0 0 0 0 0 0 0 0 0-1 0 0-1 0-1 0 0 0 0 0 0 0 0-1 0-1 0-2 0 0 0 0 0 0 0 0-1 0-1-1l-125-23c-5-1-8-5-8-10v-29c0-2 0-3 1-4l193-494c2-4 5-6 10-6 1 0 1 0 2 0l745 154c5 1 8 5 9 10l0 27c0 2 0 4-1 6z m-190 355l0 0 133-262-1-1-11-2-657-133-110 274 636 122 10 2z m138-283l0-14-1-35-377-76v48l371 76 7 1z m-380 397l11-23 5-10 5-10 1-2-147-28-1 3-4 9-5 10-10 24 145 27z m27-65v-32l-147-28v32 0l17 3 130 25z m385-428l-729-150-189 483v18l113 21 8-16c0 0 0 0 0 0 0-1 1-1 1-1 0-1 0-1 0-1 0 0 0 0 1-1 0 0 0 0 0 0 0 0 0-1 1-1 0 0 0 0 0 0 0 0 0 0 0 0 0 0 0 0 0 0 0 0 1-1 1-1 0 0 0 0 0 0 1 0 1 0 1 0 1 0 1-1 1-1 0 0 1 0 1 0 0 0 1 0 1 0 0 0 1 0 1 0 1 0 1 0 2 0 0 0 0 0 0 0l47 8c5 1 9 6 9 11v14c0 0 0 0 0 1 0 0 0 0 0 0 0 0 0 1 0 1 0 0 0 0 0 0 0 1-1 1-1 1 0 0 0 0 0 0 0 0 0 1 0 1l151 28 28-64c0-2 2-3 4-5 0 0 1 0 1 0h0c0 0 0 0 0 0 1-1 3-1 4-1 1 0 2 0 2 0l168 32c5 1 9 5 9 10v54 0c0 0 0 0 0 1 0 0 0 0 0 0 0 0 0 1 0 1 0 0 0 0 0 0 0 1-1 1-1 1 0 0 0 0 0 1 0 0 0 0 0 0 0 0 0 0 0 0l-5 10 138 26 42-85-642-123c0 0 0 0 0 0 0 0 0 0 0 0-1 0-1-1-2-1 0 0 0 0 0 0-1 0-1 0-2-1 0 0 0 0 0 0-1 0-1 0-1-1 0 0-1 0-1 0 0-1 0-1-1-1 0-1 0-1 0-1 0 0 0-1-1-1 0 0 0 0 0-1 0 0 0 0 0-1 0 0 0 0 0 0 0-1-1-1-1-2 0 0 0 0 0 0 0 0 0 0 0-1l1-56c0-1 0-3 1-4l119-297c1-4 5-7 9-7 1 0 2 0 2 0 5 1 9 6 9 11l-2 52 270 54v-57c0-3 2-6 4-8 2-2 4-3 7-3 0 0 1 0 2 1l397 80c5 1 9 5 9 10l0 4 13-26 0-16z m-541-51c-2 5-9 7-14 5-5-2-8-7-6-12l4-9c3-5 10-7 15-5 5 2 7 7 5 12l-4 9z m38 8c-2 5-8 7-13 5-6-2-9-7-6-12l4-9c2-5 9-7 15-5 5 2 7 7 5 12l-5 9z" horiz-adv-x="1000" />

<glyph glyph-name="pan1720_illustration_icon" unicode="&#xe824;" d="M978 299l-94 161 3 18c0 0 0 0 0 1 0 0 0 0 0 0 0 0 0 1 0 1 0 0 0 0 0 0 0 1 0 1 0 1 0 0 0 0 0 1 0 0 0 0-1 0 0 0 0 1 0 1 0 0 0 0 0 0 0 1 0 1 0 1 0 0 0 0-1 1 0 0 0 0 0 0l-41 70c-2 4-7 6-11 5l-6-1-20 33c-2 4-7 7-11 6l-144-27-14 25c-2 4-7 6-11 6l-131-24c-4-1-7-4-9-7 0-1 0-3-1-4 0 0 0 0 0 0 0 0 0-1 0-1 0 0 0 0 0 0 0 0 0 0 0-1l0-33-50-9-6 11c-2 4-7 7-11 6l-58-11c0 0 0 0 0 0 0 0 0 0 0 0 0 0-1 0-1 0 0 0 0 0-1 0 0-1 0-1-1-1 0 0 0 0 0 0-1 0-1-1-1-1 0 0-1 0-1 0 0 0 0-1-1-1 0 0 0 0 0-1 0 0-1 0-1-1 0 0 0 0 0 0 0-1-1-1-1-1 0 0 0-1 0-1 0 0 0-1 0-1 0 0 0 0 0-1-1 0-1-1-1-2v-11l-42-8-15 32c-3 7-10 10-17 9l-230-44c-1 0-1 0-1 0-3 0-5-2-7-4 0 0 0 0 0 0 0 0 0-1-1-1 0 0 0 0 0-1 0 0 0 0 0 0 0 0 0-1 0-1 0 0 0-1 0-1 0 0 0 0-1-1 0 0 0-1 0-1 0 0 0 0 0 0v-30l-9-1c-5-1-9-6-9-12l1-18c0-1 1-2 1-3l124-317c0 0 0 0 0 0 0 0 0 0 0 0 0-1 1-1 1-2 0 0 0 0 0 0 0-1 1-1 1-1 0 0 0-1 0-1 0 0 1 0 1 0 0-1 0-1 1-1 0 0 0 0 0 0 1-1 1-1 1-1 0 0 1 0 1 0 0 0 0 0 1 0 0-1 0-1 1-1 0 0 0 0 0 0 1 0 1 0 2 0 0 0 0 0 0 0 0 0 0 0 0 0 0 0 0 0 0 0 0 0 0 0 0 0 0 0 1 0 2 0 0 0 0 0 0 0 0 0 0 0 0 0l810 166c5 1 9 5 9 10l2 18c1 2 1 5-1 7z m-162 235l12 2 2 1 29-50-3 0-11-2-28-6-28 50 27 5z m47-68l-1-9-1-1-39-7 0 4 0 5 34 6 7 2z m-709-321l-111 283 0 7 11 2 0 0c1 1 1 1 2 2 0 0 0 0 0 0l1-2 19-47 0 0 78-194v-51z m-75 296l-4 11-5 10-6 15 213 40 14-30c4-8 12-12 21-10l53 10c0 0 0 0 0 0l2 0 65 12c0 0 0 0 0 0l66 13c0 0 0 0 0 0l19 3c0 0 0 0 0 0l0 0c0 0 0 0 0 0 0 0 1 0 1 0 0 0 1 0 1 0 0 1 0 1 1 1 0 0 0 0 0 0 1 0 1 1 2 1 0 0 0 0 0 0 2 1 4 3 5 6 0 0 0 0 0 0 0 0 0 0 1 1 0 0 0 0 0 0 0 0 0 0 0 0 0 1 0 1 0 1 0 1 0 1 1 1 0 0 0 1 0 1 0 0 0 1 0 1 0 0 0 0 0 1 0 0 0 1 0 1 0 0 0 0 0 0 0 1 0 2 0 3 0 0 0 0 0 0 0 0-1 1-1 1 0 0 0 0 0 1 0 0 0 0 0 0 0 1-1 1-1 1 0 0 0 0 0 0 0 1 0 1 0 1l-13 21 109 20 6-11 6-11 6-10 118-217-469-95-102-20-16-3-93 230z m686-133v-28l-114-23v28l114 23z m-430-87v-32l-121-25-38-8v20 13l4 1 79 16 76 15z m622 63l-785-161-9-1-1 4-3 7c1-1 3-2 4-2 1 0 2 0 2 0 1 0 2 0 3 0l16 4 164 34c5 1 9 5 9 11v45l0 1c2-18 11-18 15-17 4 0 5 3 3 9-1 4-1 8-1 11l17 3c2-17 11-18 15-17 4 1 5 4 3 10-1 3-1 7-2 10l17 4c2-18 11-18 15-17 4 0 5 3 3 9-1 4-1 8-2 11l18 3c2-17 11-18 15-17 4 1 5 4 3 10-1 3-1 7-2 10l18 4c2-17 11-18 15-17 3 1 5 4 3 9-1 4-2 8-2 11l17 3c2-17 11-18 15-17 3 1 5 4 3 10-1 3-2 7-2 10l18 4c2-17 11-18 15-17 3 1 5 4 3 9-1 4-2 8-2 11l54 11v-38c0-3 1-6 4-8 2-2 4-3 7-3 1 0 1 0 2 1l136 28c6 1 9 5 9 10v50c0 0 0 1 0 1 0 0 0 0 0 0 0 0 0 1 0 1 0 0 0 0 0 0 0 1 0 1 0 1 0 0 0 0 0 1 0 0-1 0-1 0 0 0 0 1 0 1 0 0 0 0 0 0 0 1 0 1 0 1l-123 224 129 24 12-20-34-7c-1 0-1 0-1 0 0 0 0 0 0 0 0 0 0 0 0 0-1 0-1 0-1 0-1 0-1 0-1 0 0-1-1-1-1-1 0 0 0 0 0 0-1-1-1-1-1-1-1 0-1 0-1-1 0 0 0 0-1-1 0 0 0 0 0 0 0 0 0-1-1-1 0 0 0 0 0 0 0-1 0-1 0-1 0 0 0 0 0 0 0-1-1-1-1-1 0 0 0-1 0-1 0 0 0 0 0 0 0-1 0-1 0-2 0 0 0 0 0 0l-2-32c0-2 1-4 2-6l40-70c0 0 0 0 0 0 0 0 0-1 0-1 0 0 1 0 1-1 0 0 0 0 0 0 1 0 1 0 1-1 0 0 0 0 0 0 0 0 0 0 0 0 1-1 1-1 2-1 0 0 0 0 0 0 0-1 1-1 1-1 1 0 1 0 1 0 0-1 1-1 1-1 0 0 0 0 0 0 1 0 2 0 2 0 0 0 0 0 0 0 0 0 0 0 0 0 0 0 0 0 0 0 1 0 1 0 2 0 0 0 0 0 0 0l61 12 85-145-1-5z m-755-21c3-3 7-6 12-6 1 0 2 0 3 1l28 5c5 0 9 3 11 8 2 4 3 9 1 13l-29 67-3 8c-3 6-10 10-17 9l-28-5c-4-1-8-4-10-8-3-5-3-9-1-14l31-74c0-1 1-3 2-4z m5 82l11-27 15-35-15-2-6 15-19 47 14 2z m84-60c2-6 8-10 14-10 1 0 2 0 3 0l28 5c1 1 2 1 3 1 3 1 7 4 8 7 1 1 1 1 1 2 2 4 2 8 0 12l-33 75c-3 6-11 10-18 9l-27-6c-5 0-9-3-11-8-2-4-2-9 0-13l32-74z m5 78l28-62-15-3-27 62 14 3z" horiz-adv-x="1000" />

<glyph glyph-name="pan1740_illustration_icon" unicode="&#xe825;" d="M340 113c-2 5-8 7-14 5v0c-5-2-8-8-6-12l5-10c2-5 9-6 14-4 6 2 8 7 6 11l-5 10z m-38-8c-3 5-9 7-14 5-6-2-8-8-6-12l4-10c2-5 9-6 15-4s7 7 5 11l-4 10z m194 39c-2 5-8 7-14 5-5-2-8-7-6-12l5-9c2-5 9-7 14-5 6 2 8 7 5 12l-4 9z m-118-24c-2 5-8 7-14 5-5-2-8-7-6-12l5-10c2-4 9-6 14-4 6 2 8 7 6 12l-5 9z m601 83l-32 62 1 23c0 0 0 0 0 0 0 0 0 0 0 1 0 0 0 0 0 0 0 0 0 1 0 1 0 0 0 0 0 0 0 1 0 1 0 1 0 0 0 0 0 1 0 0-1 0-1 0 0 0 0 1 0 1 0 0 0 0 0 0l-142 281c-3 5-7 7-12 6l-3-1-48 97c-2 4-7 6-11 6l-151-29-18 35c-2 4-6 6-11 6l-165-31c0 0 0 0-1 0 0 0 0 0 0 0 0 0 0 0 0 0 0 0-1 0-1 0-1 0-1 0-1-1 0 0-1 0-1 0 0 0 0 0-1 0 0-1 0-1-1-1 0 0 0 0 0 0 0-1-1-1-1-2 0 0 0 0 0 0 0 0 0 0-1-1 0 0 0 0 0 0 0 0 0 0 0 0 0-1 0-1-1-2 0 0 0 0 0 0 0 0 0-1 0-1 0 0 0 0 0-1 0 0 0-1 0-1 0 0 0 0 0 0v-39l-158-29c-3 3-7 4-11 4l-47-9c0 0 0 0 0 0 0 0 0 0 0 0 0 0 0 0 0 0-1 0-1 0-1 0 0 0-1 0-1 0 0-1-1-1-1-1 0 0 0 0 0 0-1-1-1-1-1-1 0 0-1 0-1 0 0-1 0-1-1-2 0 0 0 0 0 0 0 0 0 0 0-1 0 0-1 0-1 0 0 0 0 0 0 0 0-1 0-1 0-2 0 0 0 0 0 0 0 0-1 0-1-1l-125-23c-5-1-8-5-8-10v-29c0-2 0-3 1-4l193-494c2-4 5-6 10-6 1 0 1 0 2 0l745 154c5 1 8 5 9 10l0 27c0 2 0 4-1 6z m-190 355l0 0 133-262-1-1-11-2-657-133-110 274 636 122 10 2z m138-283l0-14-1-35-377-76v48l371 76 7 1z m-380 397l11-23 5-10 5-10 1-2-147-28-1 3-4 9-5 10-10 24 145 27z m27-65v-32l-147-28v32 0l17 3 130 25z m385-428l-729-150-189 483v18l113 21 8-16c0 0 0 0 0 0 0-1 1-1 1-1 0-1 0-1 0-1 0 0 0 0 1-1 0 0 0 0 0 0 0 0 0-1 1-1 0 0 0 0 0 0 0 0 0 0 0 0 0 0 0 0 0 0 0 0 1-1 1-1 0 0 0 0 0 0 1 0 1 0 1 0 1 0 1-1 1-1 0 0 1 0 1 0 0 0 1 0 1 0 0 0 1 0 1 0 1 0 1 0 2 0 0 0 0 0 0 0l47 8c5 1 9 6 9 11v14c0 0 0 0 0 1 0 0 0 0 0 0 0 0 0 1 0 1 0 0 0 0 0 0 0 1-1 1-1 1 0 0 0 0 0 0 0 0 0 1 0 1l151 28 28-64c0-2 2-3 4-5 0 0 1 0 1 0h0c0 0 0 0 0 0 1-1 3-1 4-1 1 0 2 0 2 0l168 32c5 1 9 5 9 10v54 0c0 0 0 0 0 1 0 0 0 0 0 0 0 0 0 1 0 1 0 0 0 0 0 0 0 1-1 1-1 1 0 0 0 0 0 1 0 0 0 0 0 0 0 0 0 0 0 0l-5 10 138 26 42-85-642-123c0 0 0 0 0 0 0 0 0 0 0 0-1 0-1-1-2-1 0 0 0 0 0 0-1 0-1 0-2-1 0 0 0 0 0 0-1 0-1 0-1-1 0 0-1 0-1 0 0-1 0-1-1-1 0-1 0-1 0-1 0 0 0-1-1-1 0 0 0 0 0-1 0 0 0 0 0-1 0 0 0 0 0 0 0-1-1-1-1-2 0 0 0 0 0 0 0 0 0 0 0-1l1-56c0-1 0-3 1-4l119-297c1-4 5-7 9-7 1 0 2 0 2 0 5 1 9 6 9 11l-2 52 270 54v-57c0-3 2-6 4-8 2-2 4-3 7-3 0 0 1 0 2 1l397 80c5 1 9 5 9 10l0 4 13-26 0-16z m-541-51c-2 5-9 7-14 5-5-2-8-7-6-12l4-9c3-5 10-7 15-5 5 2 7 7 5 12l-4 9z m38 8c-2 5-8 7-13 5-6-2-9-7-6-12l4-9c2-5 9-7 15-5 5 2 7 7 5 12l-5 9z" horiz-adv-x="1000" />

<glyph glyph-name="pan1762_illustration_icon" unicode="&#xe826;" d="M978 299l-48 83 1 1c0 0 0 0 0 1 0 0 0 0 0 0 0 0 0 1 0 1 0 0 0 0 0 1 0 0 0 0 0 0 0 0 0 1-1 1 0 0 0 0 0 0 0 1 0 1 0 1 0 0 0 0 0 1 0 0 0 0 0 0 0 0-1 1-1 1 0 0 0 0 0 0l-27 46c-1 2-4 4-6 5l-89 152c-2 4-7 6-11 5l-144-27-14 25c-2 5-7 7-12 6l-130-24c-4-1-7-3-9-7 0-1-1-3-1-4 0 0 0 0 0 0 0-1 0-1 0-1l-1-34-49-9-6 11c-2 5-7 7-12 6l-57-11c0 0 0 0 0 0 0 0 0 0 0 0-1 0-1 0-1 0 0 0-1 0-1 0 0 0-1 0-1-1 0 0-1 0-1 0 0 0 0 0-1-1 0 0 0 0 0 0 0 0-1-1-1-1 0 0 0 0-1 0 0-1 0-1 0-1 0-1 0-1-1-1 0 0 0-1 0-1 0 0 0 0 0-1 0 0 0 0-1-1 0 0 0 0 0 0 0-1 0-2 0-2v-12l-42-7-15 31c-4 7-11 11-18 9l-230-44c0 0 0 0 0 0-3 0-5-2-7-4 0 0 0 0 0 0 0-1-1-1-1-1 0 0 0-1 0-1 0 0 0 0 0 0 0-1-1-1-1-1 0-1 0-1 0-1 0 0 0-1 0-1 0 0 0-1 0-1 0 0 0-1 0-1v-29l-9-1c-5-1-9-6-9-12l1-18c0-1 0-2 1-4l124-316c0 0 0 0 0 0 0 0 0 0 0 0 0-1 1-1 1-2 0 0 0 0 0 0 0-1 1-1 1-1 0 0 0-1 0-1 0 0 1 0 1 0 0-1 0-1 1-1 0 0 0 0 0 0 1-1 1-1 1-1 0 0 1 0 1 0 0 0 0 0 1 0 0-1 0-1 1-1 0 0 0 0 0 0 1 0 1 0 2 0 0 0 0 0 0 0 0 0 0 0 0 0 0 0 0 0 0 0 0 0 0 0 0 0 0 0 1 0 2 0 0 0 0 0 0 0 0 0 0 0 0 0l810 166c5 1 9 5 9 10l2 18c1 2 1 5-1 7z m-701 218l14-30c4-7 12-12 21-10l53 10c0 0 0 0 0 0l2 0 26 5 110 21 13 2c0 0 0 0 0 0l0 0c0 0 1 0 1 0 0 0 1 0 1 1 0 0 0 0 0 0 1 0 1 0 2 0 0 0 0 0 0 1 3 1 5 3 7 6 0 0 0 0 0 1 0 0 0 0 0 0 0 0 0 0 1 0 0 0 0 0 0 1 0 0 0 1 0 1 0 0 0 0 0 0 0 1 0 1 1 2 0 0 0 0 0 0 0 1 0 2 0 3 0 0 0 0 0 0 0 1 0 1-1 2 0 0 0 0 0 0 0 1 0 1 0 1 0 1 0 1 0 1 0 0 0 0 0 1-1 0-1 0-1 1 0 0 0 0 0 0 0 0 0 0 0 1l-13 21 109 20 6-12 6-10 5-10 119-218-469-94-103-20-15-4-93 230-4 11-5 10-6 15 213 40z m-101-341v13l4 1 79 16 76 15v-32l-121-25-38-8v20z m589 132v-28l-114-23v28l114 23z m-722 127l11 2 3 0 19-47 78-194v-51l-111 283 0 7z m914-151l-785-161-9-1-1 4-3 7c1-1 3-2 4-2 1 0 2 0 2 0 1 0 2 0 3 0l16 4 164 34c5 1 9 5 9 11v45l0 1c2-15 8-18 13-18 0 0 1 1 2 1 4 0 5 3 3 9-1 4-1 8-1 11l17 3c2-14 8-17 13-17 0 0 1 0 2 0 4 1 5 4 3 10-1 3-1 7-1 10l17 4c1-15 7-18 12-18 1 0 1 1 2 1 4 0 6 3 4 9-2 4-2 8-2 11l17 3c2-14 8-17 13-17 0 0 1 0 2 0 4 1 5 4 3 10-1 3-1 7-2 10l18 4c2-15 8-17 12-17 1 0 2 0 3 0 4 1 5 4 3 9-1 4-1 8-2 11l17 3c2-14 8-17 12-17 1 0 2 0 3 0 4 1 5 4 3 10-1 3-1 7-2 10l18 4c2-15 8-17 12-17 1 0 2 0 3 0 4 1 5 4 3 9-1 4-1 8-2 11l54 11v-38c0-3 1-6 4-8 2-2 4-3 7-3 1 0 1 0 2 1l137 28c5 1 8 5 8 10v50c0 0 0 1 0 1 0 0 0 0 0 0 0 0 0 1 0 1 0 0 0 0 0 0 0 1 0 1 0 1 0 0 0 0 0 1 0 0 0 0 0 0 0 0-1 1-1 1 0 0 0 0 0 0 0 1 0 1 0 1l-122 224 129 24 80-137-23-4c0 0 0 0 0 0 0 0 0 0 0 0 0 0-1 0-1 0 0-1 0-1-1-1 0 0 0 0 0 0-1 0-1 0-2-1 0 0 0 0 0 0 0 0 0 0-1-1 0 0 0 0 0 0 0 0-1-1-1-1 0 0 0 0 0 0-1-1-1-1-1-1 0 0 0-1-1-1 0 0 0 0 0-1 0 0 0 0 0 0 0 0 0 0 0 0-1-1-1-1-1-1 0-1 0-1 0-1 0 0 0-1 0-1 0 0 0 0 0 0l-2-22c0-2 1-5 2-6l26-46c0 0 0 0 0 0 0-1 1-1 1-1 0 0 0 0 0-1 0 0 1 0 1 0 0 0 0 0 0-1 0 0 0 0 0 0 0 0 1 0 1 0 0 0 0-1 1-1 0 0 0 0 0 0 1 0 1-1 2-1 0 0 0 0 0 0 0 0 1 0 1 0 1 0 1 0 1 0 0 0 1-1 2-1 0 0 0 0 0 0 0 0 0 0 0 0 0 0 0 0 0 0 0 0 1 0 2 1 0 0 0 0 0 0l40 7c1 1 2 1 3 1l36-61-1-6z m-58 108l-15-3-5 9-10 16 15 3 3 1 15-26-3 0z m-700-125c1-1 2-3 3-4 3-3 7-6 12-6 1 0 2 0 3 1l28 5c5 0 9 3 11 8s3 9 1 13l-29 67-3 8c-3 6-10 10-17 9l-28-5c0 0 0 0 0 0-4-1-8-4-10-8-3-5-3-9-1-14l30-74z m8 78l11-27 15-35-15-2-6 15-19 47 14 2z m84-60c2-6 8-10 14-10 1 0 2 0 3 0l28 5c1 0 2 1 3 1 3 1 7 4 8 7 1 1 1 1 1 2 2 4 2 8 0 12l-33 74c-3 7-10 11-18 9l-27-5c-5-1-9-4-11-8-2-4-2-9 0-13l32-74z m5 78l28-62-15-3-27 62 14 3z" horiz-adv-x="1000" />

<glyph glyph-name="pan4620_illustration_icon" unicode="&#xe827;" d="M978 299l-48 83 1 1c0 0 0 0 0 1 0 0 0 0 0 0 0 0 0 1 0 1 0 0 0 0 0 1 0 0 0 0 0 0 0 0 0 1-1 1 0 0 0 0 0 0 0 1 0 1 0 1 0 0 0 0 0 1 0 0 0 0 0 0 0 0-1 1-1 1 0 0 0 0 0 0l-27 46c-1 2-4 4-6 5l-89 152c-2 4-7 6-11 5l-144-27-14 25c-2 5-7 7-12 6l-130-24c-4-1-7-3-9-7 0-1-1-3-1-4 0 0 0 0 0 0 0-1 0-1 0-1l-1-34-49-9-6 11c-2 5-7 7-12 6l-57-11c0 0 0 0 0 0 0 0 0 0 0 0-1 0-1 0-1 0 0 0-1 0-1 0 0 0-1 0-1-1 0 0-1 0-1 0 0 0 0 0-1-1 0 0 0 0 0 0 0 0-1-1-1-1 0 0 0 0-1 0 0-1 0-1 0-1 0-1 0-1-1-1 0 0 0-1 0-1 0 0 0 0 0-1 0 0 0 0-1-1 0 0 0 0 0 0 0-1 0-2 0-2v-12l-42-7-15 31c-4 7-11 11-18 9l-230-44c0 0 0 0 0 0-3 0-5-2-7-4 0 0 0 0 0 0 0-1-1-1-1-1 0 0 0-1 0-1 0 0 0 0 0 0 0-1-1-1-1-1 0-1 0-1 0-1 0 0 0-1 0-1 0 0 0-1 0-1 0 0 0-1 0-1v-29l-9-1c-5-1-9-6-9-12l1-18c0-1 0-2 1-4l124-316c0 0 0 0 0 0 0 0 0 0 0 0 0-1 1-1 1-2 0 0 0 0 0 0 0-1 1-1 1-1 0 0 0-1 0-1 0 0 1 0 1 0 0-1 0-1 1-1 0 0 0 0 0 0 1-1 1-1 1-1 0 0 1 0 1 0 0 0 0 0 1 0 0-1 0-1 1-1 0 0 0 0 0 0 1 0 1 0 2 0 0 0 0 0 0 0 0 0 0 0 0 0 0 0 0 0 0 0 0 0 0 0 0 0 0 0 1 0 2 0 0 0 0 0 0 0 0 0 0 0 0 0l810 166c5 1 9 5 9 10l2 18c1 2 1 5-1 7z m-701 218l14-30c4-7 12-12 21-10l53 10c0 0 0 0 0 0l2 0 26 5 110 21 13 2c0 0 0 0 0 0l0 0c0 0 1 0 1 0 0 0 1 0 1 1 0 0 0 0 0 0 1 0 1 0 2 0 0 0 0 0 0 1 3 1 5 3 7 6 0 0 0 0 0 1 0 0 0 0 0 0 0 0 0 0 1 0 0 0 0 0 0 1 0 0 0 1 0 1 0 0 0 0 0 0 0 1 0 1 1 2 0 0 0 0 0 0 0 1 0 2 0 3 0 0 0 0 0 0 0 1 0 1-1 2 0 0 0 0 0 0 0 1 0 1 0 1 0 1 0 1 0 1 0 0 0 0 0 1-1 0-1 0-1 1 0 0 0 0 0 0 0 0 0 0 0 1l-13 21 109 20 6-12 6-10 5-10 119-218-469-94-103-20-15-4-93 230-4 11-5 10-6 15 213 40z m-101-341v13l4 1 79 16 76 15v-32l-121-25-38-8v20z m589 132v-28l-114-23v28l114 23z m-722 127l11 2 3 0 19-47 78-194v-51l-111 283 0 7z m914-151l-785-161-9-1-1 4-3 7c1-1 3-2 4-2 1 0 2 0 2 0 1 0 2 0 3 0l16 4 164 34c5 1 9 5 9 11v45l0 1c2-15 8-18 13-18 0 0 1 1 2 1 4 0 5 3 3 9-1 4-1 8-1 11l17 3c2-14 8-17 13-17 0 0 1 0 2 0 4 1 5 4 3 10-1 3-1 7-1 10l17 4c1-15 7-18 12-18 1 0 1 1 2 1 4 0 6 3 4 9-2 4-2 8-2 11l17 3c2-14 8-17 13-17 0 0 1 0 2 0 4 1 5 4 3 10-1 3-1 7-2 10l18 4c2-15 8-17 12-17 1 0 2 0 3 0 4 1 5 4 3 9-1 4-1 8-2 11l17 3c2-14 8-17 12-17 1 0 2 0 3 0 4 1 5 4 3 10-1 3-1 7-2 10l18 4c2-15 8-17 12-17 1 0 2 0 3 0 4 1 5 4 3 9-1 4-1 8-2 11l54 11v-38c0-3 1-6 4-8 2-2 4-3 7-3 1 0 1 0 2 1l137 28c5 1 8 5 8 10v50c0 0 0 1 0 1 0 0 0 0 0 0 0 0 0 1 0 1 0 0 0 0 0 0 0 1 0 1 0 1 0 0 0 0 0 1 0 0 0 0 0 0 0 0-1 1-1 1 0 0 0 0 0 0 0 1 0 1 0 1l-122 224 129 24 80-137-23-4c0 0 0 0 0 0 0 0 0 0 0 0 0 0-1 0-1 0 0-1 0-1-1-1 0 0 0 0 0 0-1 0-1 0-2-1 0 0 0 0 0 0 0 0 0 0-1-1 0 0 0 0 0 0 0 0-1-1-1-1 0 0 0 0 0 0-1-1-1-1-1-1 0 0 0-1-1-1 0 0 0 0 0-1 0 0 0 0 0 0 0 0 0 0 0 0-1-1-1-1-1-1 0-1 0-1 0-1 0 0 0-1 0-1 0 0 0 0 0 0l-2-22c0-2 1-5 2-6l26-46c0 0 0 0 0 0 0-1 1-1 1-1 0 0 0 0 0-1 0 0 1 0 1 0 0 0 0 0 0-1 0 0 0 0 0 0 0 0 1 0 1 0 0 0 0-1 1-1 0 0 0 0 0 0 1 0 1-1 2-1 0 0 0 0 0 0 0 0 1 0 1 0 1 0 1 0 1 0 0 0 1-1 2-1 0 0 0 0 0 0 0 0 0 0 0 0 0 0 0 0 0 0 0 0 1 0 2 1 0 0 0 0 0 0l40 7c1 1 2 1 3 1l36-61-1-6z m-58 108l-15-3-5 9-10 16 15 3 3 1 15-26-3 0z m-700-125c1-1 2-3 3-4 3-3 7-6 12-6 1 0 2 0 3 1l28 5c5 0 9 3 11 8s3 9 1 13l-29 67-3 8c-3 6-10 10-17 9l-28-5c0 0 0 0 0 0-4-1-8-4-10-8-3-5-3-9-1-14l30-74z m8 78l11-27 15-35-15-2-6 15-19 47 14 2z m84-60c2-6 8-10 14-10 1 0 2 0 3 0l28 5c1 0 2 1 3 1 3 1 7 4 8 7 1 1 1 1 1 2 2 4 2 8 0 12l-33 74c-3 7-10 11-18 9l-27-5c-5-1-9-4-11-8-2-4-2-9 0-13l32-74z m5 78l28-62-15-3-27 62 14 3z" horiz-adv-x="1000" />

<glyph glyph-name="pan9026_illustration_icon" unicode="&#xe828;" d="M979 275l-34 59c0 0 0 0 0 0 0 0 0 1 0 1 0 0 0 0 0 0 0 1 0 1 0 1 0 0 0 0 0 1 0 0 0 0 0 0 0 0 0 1 0 1 0 0-1 0-1 0 0 1 0 1 0 1 0 0 0 0 0 1 0 0 0 0 0 0 0 0 0 0 0 0l-32 58c-2 3-4 4-6 5l-124 220c-3 4-7 6-12 5l-208-39-2 3c-8 16-24 17-31 16l-468-87c0 0 0 0 0 0 0 0 0 0 0 0-1 0-1-1-2-1 0 0 0 0 0 0 0 0 0 0 0 0-1 0-1 0-1-1-1 0-1 0-1 0 0 0-1 0-1-1 0 0 0 0 0 0-1 0-1-1-1-1-1 0-1 0-1 0 0 0 0-1 0-1 0 0-1 0-1-1 0 0 0 0 0-1 0 0 0 0 0 0 0 0 0 0 0 0-1-1-1-1-1-2 0 0 0 0 0 0 0-1 0-1 0-1 0-1 0-1 0-1 0 0 0-1 0-1 0 0 0 0 0 0l1-16-24-5c-6-1-10-6-9-12l3-27c0-1 0-2 0-3l141-368c2-4 6-7 10-7 1 0 2 0 3 0l789 163c5 1 8 5 9 9l5 24c0 3 0 5-1 8z m-24-21l-773-159-137 358-2 16 12 2 1-1c0-1 0-2 0-3l4-11c0 0 0 0 0 0 1-1 1-1 1-2 0 0 0 0 0 0 1-1 1-1 1-2 0 0 1 0 1 0 0 0 0-1 1-1 0 0 0 0 0 0 0 0 1 0 1-1 0 0 0 0 0 0 1 0 1 0 2 0 0 0 0 0 0-1 1 0 1 0 1 0 1 0 1 0 1 0 0 0 1 0 1 0 0 0 1 0 1 0 0 0 0 0 0 0 0 0 0 0 1 0 0 0 0 0 1 0l0 0 14-35c0-1 1-2 1-2 0-2 0-4 0-5l5-34c0 0 0-1 0-2l88-225c0 0 0 0 0 0 0 0 0-1 0-1l6-15c0 0 0 0 1 0 0 0 0 0 0-1 0 0 0 0 0 0 1-1 1-1 1-1 0 0 0-1 0-1 1 0 1 0 1 0 0-1 0-1 1-1 0 0 0 0 0 0 0 0 0 0 0 0 1 0 1-1 1-1 0 0 1 0 1 0 0 0 0 0 1 0 0 0 0-1 0-1 1 0 1 0 2 0 0 0 0 0 0 0 1 0 1 0 2 0 0 0 0 0 0 0 0 0 1 0 1 0 0 0 0 0 0 0 1 0 1 0 1 0l510 104c5 1 8 5 9 10l3 28c2 18-3 29-3 30 0 0 0 0 0 0l-14 27-32 61c-1 4-5 6-9 6l-92 178 194 37 116-205-17-4c0 0 0 0 0 0 0 0-1 0-1 0 0 0 0 0 0 0 0 0-1 0-1 0 0 0 0 0 0 0-1 0-1-1-2-1 0 0 0 0 0 0-1 0-1-1-1-1 0 0 0 0-1 0 0-1 0-1-1-2 0 0 0 0 0 0 0 0 0-1-1-1 0 0 0 0 0 0 0-1 0-1 0-1 0 0 0 0 0 0 0-1 0-1 0-1-1 0-1-1-1-1 0-1 0-1 0-1 0 0 0-1 0-1 0 0 0 0 0 0l0-13c0-2 0-4 1-6l32-57c0 0 0 0 0 0 0 0 1-1 1-1 0 0 0 0 0 0 1-1 1-1 1-1 0 0 0 0 0 0 1-1 1-1 1-1 0 0 0 0 0 0 0 0 1-1 1-1 0 0 0 0 1 0 0 0 1-1 1-1 0 0 1 0 1 0 0 0 0 0 1 0 0 0 0 0 0-1 1 0 2 0 2 0 0 0 0 0 0 0 0 0 0 0 0 0 1 0 1 0 1 0 0 0 1 0 1 0 0 0 0 0 1 0l30 7 26-45-3-12z m-421 332c0 0 3 1 5-1 0-1 1-1 1-2l4-8 6-11 88-172c-5-1-10-3-13-7-2-4-3-8-1-12 2-7 8-9 14-9 6 0 12 2 18 3 1 0 1 0 1 0l28-54 14-26c0-2 2-8 1-18l-2-21-491-100c0 6-1 15-3 22l8 1c5 1 9 7 9 12-1 2-2 14-8 22-3 3-6 4-10 4-1 0-12-2-20-11l-69 180-4 32c0 0 0 0-1 1 0 0 1 0 1 0 0 1 2 3 9 4l5 1c3 0 6 2 8 4 2 3 2 6 2 9l-1 5c-1 3-2 5-5 7-2 2-5 2-8 2l-16-4-15 38-5 11-4 10 0 1c0 0 0 0 0 0 0 0-1 1-1 2l454 85c0 0 0 0 1 0z m381-244l-9-1-1-1-21 38 9 2 3 1 21-38-2-1z" horiz-adv-x="1000" />

<glyph glyph-name="pan9420_illustration_icon" unicode="&#xe829;" d="M978 309l-14 22 4 25c0 0 0 1 0 1 0 0 0 1 0 1 0 0 0 0 0 1 0 1 0 3-1 5l-147 218c-2 3-6 5-10 4l-240-45-177-32-225-43c0 0 0 0 0 0 0 0 0 0 0 0 0 0 0 0 0 0 0 0-1 0-1 0 0 0 0 0-1 0 0-1 0-1-1-1 0 0 0 0 0 0-1 0-1-1-1-1 0 0 0 0 0 0-1-1-1-1-1-1 0 0-1 0-1 0 0-1 0-1 0-1 0 0 0-1 0-1 0 0 0 0-1 0 0 0 0-1 0-1 0 0 0 0 0 0 0-1 0-1-1-1 0-1 0-1 0-1 0 0 0-1 0-1 0 0 0 0 0 0v-20l-132-25c-5-1-8-5-8-10v-10c0-1 0-2 1-4l105-268c2-4 5-6 9-6 1 0 2 0 2 0l833 171c4 1 7 4 8 8l2 9c0 2 0 5-2 7z m-31 37l-1-5-1-7-5-1-229-47 1 13 221 44 11 2 3 1z m-551 143l178 33 234 44 5-9 129-192-9-2-11-2-640-128 0 0-28 62-58 128-4 9-4 10-4 7 212 40z m296-194l-1-13-167-34 1 13 167 34z m-187-38l-1-13-218-45v14l219 44z m-395 10l-6 16 13 2 6-15-13-3z m17-17v-4l-13-2v4l13 2z m15-115l-35 87 32 7c5 1 8 5 8 9v24c0 0 0 0 0 0 0 0 0 1 0 1 0 0 0 0 0 0 0 1 0 1 0 1 0 0 0 0 0 1 0 0 0 0 0 0 0 0-1 1-1 1 0 0 0 0 0 0l-14 34c-1 5-6 7-11 6l-33-6c0 0 0 0 0 0 0 0 0 0 0 0 0 0 0 0 0 0-1 0-1 0-1 0-1 0-1 0-1-1 0 0-1 0-1 0 0 0 0 0 0 0-1-1-1-1-1-1 0 0-1 0-1 0 0-1 0-1-1-1 0 0 0-1 0-1 0 0 0 0-1-1 0 0 0 0 0 0 0 0 0 0 0 0 0 0 0-1 0-1 0 0 0 0-1-1 0 0 0 0 0-1 0 0 0 0 0 0 0 0 0-1 0-1l-40 103v0l122 23 23-53c2-3 5-5 9-5 1 0 3 0 4 0 1 1 3 2 4 3l33-73-1-31c0-1 1-3 1-4l32-71c0 0 0 0 0 0 0-1 0-1 0-2 0 0 0 0 1 0 0 0 0 0 0-1 0 0 0 0 0 0 1 0 1 0 1-1 0 0 0 0 0 0 0 0 0 0 1 0 0 0 0 0 0 0 0 0 1-1 1-1 0 0 0 0 0 0 1 0 1 0 1 0 1 0 1-1 1-1 0 0 1 0 1 0 0 0 0 0 0 0 1 0 1 0 2 0 0 0 0 0 0 0 1 0 1 0 2 0 0 0 0 0 0 0l237 49 0 0 436 89 8-12-817-168z" horiz-adv-x="1000" />

<glyph glyph-name="shape-background-demo-overview-large" unicode="&#xe82a;" d="M980 489l-480-278-480 278h960z" horiz-adv-x="1000" />

<glyph glyph-name="shape-background-demos-large" unicode="&#xe82b;" d="M830-60l-659-70-1 960h659l1-890z" horiz-adv-x="1000" />

<glyph glyph-name="shape-background-landing-large" unicode="&#xe82c;" d="M169-130v657l662 303v-960l-662 0z" horiz-adv-x="1000" />
</font>
</defs>
</svg>
